<?xml version="1.0" encoding="UTF-8"?>
<svg id="Layer_1" data-name="Layer 1" xmlns="http://www.w3.org/2000/svg" xmlns:xlink="http://www.w3.org/1999/xlink" viewBox="0 0 401.02 214.47">
  <defs>
    <style>
      .cls-1 {
        fill: url(#Super_Soft_Black_Vignette-13);
      }

      .cls-1, .cls-2, .cls-3, .cls-4, .cls-5, .cls-6, .cls-7, .cls-8, .cls-9, .cls-10, .cls-11, .cls-12, .cls-13, .cls-14, .cls-15, .cls-16, .cls-17, .cls-18 {
        stroke-miterlimit: 10;
      }

      .cls-1, .cls-4, .cls-5, .cls-6, .cls-7, .cls-8, .cls-10, .cls-11, .cls-13, .cls-14, .cls-15, .cls-16, .cls-17, .cls-18 {
        stroke: #f6921e;
      }

      .cls-1, .cls-4, .cls-5, .cls-6, .cls-7, .cls-8, .cls-10, .cls-11, .cls-13, .cls-14, .cls-16, .cls-17, .cls-18 {
        opacity: .5;
      }

      .cls-2 {
        fill: #fff;
      }

      .cls-2, .cls-3 {
        stroke: #231f20;
      }

      .cls-2, .cls-12 {
        stroke-width: 3px;
      }

      .cls-3 {
        fill: #f28620;
        stroke-width: 5px;
      }

      .cls-4 {
        fill: url(#Super_Soft_Black_Vignette-11);
      }

      .cls-5 {
        fill: url(#Super_Soft_Black_Vignette-10);
      }

      .cls-6 {
        fill: url(#Super_Soft_Black_Vignette-9);
      }

      .cls-7 {
        fill: url(#Super_Soft_Black_Vignette-8);
      }

      .cls-8 {
        fill: url(#Super_Soft_Black_Vignette-12);
      }

      .cls-9 {
        fill: #f6921e;
        stroke-width: 2px;
      }

      .cls-9, .cls-12 {
        stroke: #fff;
      }

      .cls-10 {
        fill: url(#Super_Soft_Black_Vignette-3);
      }

      .cls-11 {
        fill: url(#Super_Soft_Black_Vignette-7);
      }

      .cls-12 {
        fill: #2e3191;
      }

      .cls-13 {
        fill: url(#Super_Soft_Black_Vignette-4);
      }

      .cls-14 {
        fill: url(#Super_Soft_Black_Vignette-5);
      }

      .cls-15 {
        fill: #2b3c97;
        font-family: ComicSansMS-Bold, 'Comic Sans MS';
        font-size: 36px;
        font-weight: 700;
      }

      .cls-16 {
        fill: url(#Super_Soft_Black_Vignette-2);
      }

      .cls-17 {
        fill: url(#Super_Soft_Black_Vignette);
      }

      .cls-18 {
        fill: url(#Super_Soft_Black_Vignette-6);
      }
    </style>
    <radialGradient id="Super_Soft_Black_Vignette" data-name="Super Soft Black Vignette" cx="42.41" cy="88.04" fx="42.41" fy="88.04" r="31.24" gradientUnits="userSpaceOnUse">
      <stop offset=".57" stop-color="#130c0e" stop-opacity="0"/>
      <stop offset=".8" stop-color="#130c0e" stop-opacity=".65"/>
      <stop offset=".82" stop-color="#130c0e" stop-opacity=".7"/>
      <stop offset="1" stop-color="#130c0e" stop-opacity=".95"/>
    </radialGradient>
    <radialGradient id="Super_Soft_Black_Vignette-2" data-name="Super Soft Black Vignette" cx="3827.52" cy="1452.7" fx="3827.52" fy="1452.7" r="31.24" gradientTransform="translate(-357.48 54.59) scale(.11 .1)" xlink:href="#Super_Soft_Black_Vignette"/>
    <radialGradient id="Super_Soft_Black_Vignette-3" data-name="Super Soft Black Vignette" cx="3770.25" cy="1483.95" fx="3770.25" fy="1483.95" r="31.24" gradientTransform="translate(-357.48 54.59) scale(.11 .1)" xlink:href="#Super_Soft_Black_Vignette"/>
    <radialGradient id="Super_Soft_Black_Vignette-4" data-name="Super Soft Black Vignette" cx="3890.01" cy="1489.56" fx="3890.01" fy="1489.56" r="31.24" gradientTransform="translate(-357.48 54.59) scale(.11 .1)" xlink:href="#Super_Soft_Black_Vignette"/>
    <radialGradient id="Super_Soft_Black_Vignette-5" data-name="Super Soft Black Vignette" cx="3796.27" cy="1520.8" fx="3796.27" fy="1520.8" r="31.24" gradientTransform="translate(-357.48 54.59) scale(.11 .1)" xlink:href="#Super_Soft_Black_Vignette"/>
    <radialGradient id="Super_Soft_Black_Vignette-6" data-name="Super Soft Black Vignette" cx="3739" cy="1535.99" fx="3739" fy="1535.99" r="31.24" gradientTransform="translate(-357.48 54.59) scale(.11 .1)" xlink:href="#Super_Soft_Black_Vignette"/>
    <radialGradient id="Super_Soft_Black_Vignette-7" data-name="Super Soft Black Vignette" cx="3666.54" cy="1406.27" fx="3666.54" fy="1406.27" r="31.24" gradientTransform="translate(-357.48 54.59) scale(.11 .1)" xlink:href="#Super_Soft_Black_Vignette"/>
    <radialGradient id="Super_Soft_Black_Vignette-8" data-name="Super Soft Black Vignette" cx="4022.26" cy="1375.02" fx="4022.26" fy="1375.02" r="31.24" gradientTransform="translate(-357.48 54.59) scale(.11 .1)" xlink:href="#Super_Soft_Black_Vignette"/>
    <radialGradient id="Super_Soft_Black_Vignette-9" data-name="Super Soft Black Vignette" cx="4022.26" cy="1406.27" fx="4022.26" fy="1406.27" r="31.24" gradientTransform="translate(-357.48 54.59) scale(.11 .1)" xlink:href="#Super_Soft_Black_Vignette"/>
    <radialGradient id="Super_Soft_Black_Vignette-10" data-name="Super Soft Black Vignette" cx="3620.1" cy="1437.51" fx="3620.1" fy="1437.51" r="31.24" gradientTransform="translate(-357.48 54.59) scale(.11 .1)" xlink:href="#Super_Soft_Black_Vignette"/>
    <radialGradient id="Super_Soft_Black_Vignette-11" data-name="Super Soft Black Vignette" cx="2241.05" cy="1317.88" fx="2241.05" fy="1317.88" gradientTransform="translate(-289.24 1.54) scale(.17 .15)" xlink:href="#Super_Soft_Black_Vignette"/>
    <radialGradient id="Super_Soft_Black_Vignette-12" data-name="Super Soft Black Vignette" cx="2105.46" cy="1338.9" fx="2105.46" fy="1338.9" r="31.24" gradientTransform="translate(-289.24 1.54) scale(.17 .15)" xlink:href="#Super_Soft_Black_Vignette"/>
    <radialGradient id="Super_Soft_Black_Vignette-13" data-name="Super Soft Black Vignette" cx="2056.71" cy="1363.7" fx="2056.71" fy="1363.7" gradientTransform="translate(-289.24 1.54) scale(.17 .15)" xlink:href="#Super_Soft_Black_Vignette"/>
  </defs>
  <path class="cls-3" d="M53.4,5.33c-33.81,156.45-20.71,196.22-3.37,204.44,11.22,5.32,30.3.31,42.34-8.32,17.78-12.75,27.79-38.85,19.9-49.75-2.51-3.47-7.31-6.06-12.13-6.04-5.9.03-12.49,4-13.07,8.65-.75,6.06,9.29,8.53,9.77,14.57.76,9.69-23.27,26.69-36.87,20.8-24.15-10.47-13.79-92.44,1.41-144.22,4.92-16.78,10.33-30.3,14.3-39.43,0,0,0,0,0,0,.03-.08.09-.23.12-.31"/>
  <path class="cls-12" d="M66.08,151.78c-.85-1.98-2.08-4.91-3.5-8.49-3.69-9.3-7.94-20.13-11.24-34.07-.24-1.03-2.57-10.97-3.23-19.29-.32-4.06-.36-8.19-.36-8.19,0,0-.03-3.05.08-5.46.65-14.36,8.24-23.45,8.24-23.45,2.1-2.52,6.74-7.4,14.1-10.2,4.32-1.65,6.99-1.62,7.47-3.71.47-2.06-1.53-5.08-3.64-6.38-6.51-4.03-19.32,5.1-26.38,14.56,0,0-10.82,14.49-10.42,37.55.07,3.91.51,8.37.51,8.37,1.04,7.53,2.3,13.78,3.32,18.29,3.53,15.6,10.29,32.31,11.97,36.63l13.1,3.86Z"/>
  <path class="cls-12" d="M44.69,90.56c-4.2.32-8.67,1.35-8.67,1.35-4.14.96-7.05,2.1-10.02,3.28-3.38,1.34-7.78,3.29-12.75,6.07-.36-2.34-.72-4.69-1.07-7.03,3.73-1.68,7.7-3.27,11.92-4.71,18.75-6.38,36.78-7.87,51.99-7.38-.47,5.1-.93,10.21-1.4,15.31-2.5-1.08-18.32-7.78-30-6.9Z"/>
  <text class="cls-15" transform="translate(138.78 124.9)"><tspan x="0" y="0">fusionlab-learn</tspan></text>
  <ellipse class="cls-2" cx="64.59" cy="5.47" rx="12.05" ry="3.97"/>
  <circle class="cls-17" cx="42.41" cy="88.04" r="31.24"/>
  <ellipse class="cls-16" cx="70.84" cy="198.04" rx="3.5" ry="3.09"/>
  <ellipse class="cls-10" cx="64.43" cy="201.12" rx="3.5" ry="3.09"/>
  <ellipse class="cls-13" cx="77.83" cy="201.67" rx="3.5" ry="3.09"/>
  <ellipse class="cls-14" cx="67.35" cy="204.76" rx="3.5" ry="3.09"/>
  <ellipse class="cls-18" cx="60.94" cy="206.26" rx="3.5" ry="3.09"/>
  <ellipse class="cls-11" cx="52.83" cy="193.45" rx="3.5" ry="3.09"/>
  <ellipse class="cls-7" cx="92.63" cy="190.36" rx="3.5" ry="3.09"/>
  <ellipse class="cls-6" cx="92.63" cy="193.45" rx="3.5" ry="3.09"/>
  <ellipse class="cls-5" cx="47.63" cy="196.54" rx="3.5" ry="3.09"/>
  <ellipse class="cls-4" cx="83.49" cy="194.95" rx="5.2" ry="4.59"/>
  <ellipse class="cls-8" cx="60.94" cy="198.04" rx="5.2" ry="4.59"/>
  <ellipse class="cls-1" cx="52.83" cy="201.67" rx="5.2" ry="4.59"/>
  <circle class="cls-9" cx="40.41" cy="88.16" r="11.56"/>
</svg>