<?xml version="1.0" encoding="utf-8"?>
<svg xmlns="http://www.w3.org/2000/svg" width="48" height="48" viewBox="0 0 24 24" fill="none" stroke-width="2" stroke-linecap="round" stroke-linejoin="round" class="feather feather-monitor" xmlns:bx="https://boxy-svg.com"><defs><bx:export><bx:file format="svg"/></bx:export></defs><rect x="2" y="3" width="20" height="14" rx="2" ry="2" style="stroke: #008686;"/><line x1="8" y1="21" x2="16" y2="21" style="stroke: #008686;"/><line x1="12" y1="17" x2="12" y2="21" style="stroke: #008686;"/><path d="M 10.388 7.097 L 10.425 7.979 L 9.836 9.13 L 8.916 11.011 L 8.731 12.582 L 9.395 14.808 L 10.904 15.69 L 13.189 15.69 L 15.327 14.003 L 16.286 11.356 L 14.075 8.555 L 13.449 6.981 L 10.388 7.097 Z" fill="#eceff1" style=""/><path d="M 15.618 9.284 C 15.023 8.401 14.54 7.863 14.277 6.753 C 14.014 5.64 14.347 5.947 14.12 4.988 C 14.008 4.489 13.821 4.143 13.635 3.874 C 13.413 3.607 13.154 3.452 13.007 3.414 C 12.674 3.221 11.898 2.915 10.942 3.452 C 9.952 3.99 10.067 5.141 10.263 7.481 C 10.263 7.634 10.23 7.825 10.157 7.979 C 10.011 8.325 9.756 8.632 9.534 8.9 C 9.279 9.284 9.022 9.667 8.84 10.089 C 8.402 10.972 8.003 12.086 8.115 12.508 C 8.3 12.469 10.642 16.15 10.642 16.227 C 10.791 16.189 11.415 16.189 11.968 16.189 C 12.743 16.15 13.186 16.113 13.811 16.266 C 13.811 16.15 13.774 16.036 13.774 15.92 C 13.773 15.69 13.808 15.498 13.843 15.231 C 13.879 15.038 13.914 14.846 13.953 14.616 C 13.584 14.961 12.923 15.345 12.296 15.46 C 11.745 15.576 10.821 15.383 10.378 14.808 C 10.412 14.808 10.488 14.808 10.523 14.771 C 10.634 14.731 10.745 14.693 10.783 14.616 C 10.89 14.423 10.815 14.233 10.741 14.118 C 10.667 14.003 10.112 13.58 9.852 13.35 C 9.594 13.119 9.445 13.006 9.298 12.853 C 9.298 12.853 9.075 12.622 9.002 12.546 C 8.928 12.469 8.89 12.393 8.853 12.353 C 8.778 12.16 8.741 11.931 8.774 11.624 C 8.811 11.202 8.955 10.856 9.136 10.473 C 9.211 10.32 9.395 10.012 9.395 10.012 C 9.395 10.012 8.774 11.624 9.11 12.124 C 9.11 12.124 9.142 11.624 9.289 11.126 C 9.397 10.781 9.581 10.282 9.799 10.012 C 10.018 9.745 10.565 8.747 10.598 8.132 C 10.597 7.863 10.634 7.596 10.634 7.403 C 10.484 7.25 13.062 6.866 13.211 7.288 C 13.251 7.441 13.773 8.823 14.071 9.552 C 14.221 9.897 14.407 10.205 14.521 10.589 C 14.631 11.011 14.71 11.586 14.713 12.16 C 14.713 12.275 14.714 12.469 14.677 12.659 C 14.751 12.659 16.18 11.049 14.479 9.706 C 14.479 9.706 15.511 10.205 15.554 11.202 C 15.596 12.008 15.267 12.659 15.193 12.774 C 15.23 12.774 15.969 13.119 16.006 13.119 C 16.154 13.119 16.448 13.006 16.448 13.006 C 16.485 12.891 16.594 12.582 16.593 12.469 C 16.846 11.586 16.212 10.167 15.618 9.284 Z" fill="#263238" style=""/><ellipse cx="10.358" cy="7.207" fill="#eceff1" rx="0.479" ry="0.767" style="" transform="matrix(1, 0, 0.005309, 1, 0.524348, -1.222968)"/><ellipse cx="11.437" cy="7.181" fill="#eceff1" rx="0.628" ry="0.882" style="" transform="matrix(1, 0, 0.005309, 1, 1.102387, -1.234937)"/><ellipse cx="21.7" cy="15.5" fill="#212121" rx="0.46" ry="0.258" transform="matrix(-0.12573, -0.992065, 0.991455, -0.130542, -1.708091, 29.621216)" style=""/><ellipse cx="11.413" cy="7.286" fill="#212121" rx="0.368" ry="0.499" style="" transform="matrix(1, 0, 0.005309, 1, 1.089785, -1.186602)"/><g fill="#ffc107" transform="matrix(0.368557, 0, 0.002036, 0.383647, 2.926968, 0.114058)" style=""><path d="m39.3 37.6c-.4-.2-1.1-.5-1.7-1.4-.3-.5-.2-1.9-.7-2.5-.3-.4-.7-.2-.8-.2-.9.2-3 1.6-4.4 0-.2-.2-.5-.5-1-.5s-.7.2-.9.6-.2.7-.2 1.7c0 .8 0 1.7-.1 2.4-.2 1.7-.5 2.7-.5 3.7 0 1.1.3 1.8.7 2.1.3.3.8.5 1.9.5s1.8-.4 2.5-1.1c.5-.5.9-.7 2.3-1.7 1.1-.7 2.8-1.6 3.1-1.9.2-.2.5-.3.5-.9 0-.5-.4-.7-.7-.8z"/><path d="m19.2 37.9c-1-1.6-1.1-1.9-1.8-2.9-.6-1-1.9-2.9-2.7-2.9-.6 0-.9.3-1.3.7s-.8 1.3-1.5 1.8c-.6.5-2.3.4-2.7 1s.4 1.5.4 3c0 .6-.5 1-.6 1.4-.1.5-.2.8 0 1.2.4.6.9.8 4.3 1.5 1.8.4 3.5 1.4 4.6 1.5s3 0 3-2.7c.1-1.6-.8-2-1.7-3.6z"/><path d="m21.1 19.8c-.6-.4-1.1-.8-1.1-1.4s.4-.8 1-1.3c.1-.1 1.2-1.1 2.3-1.1s2.4.7 2.9.9c.9.2 1.8.4 1.7 1.1-.1 1-.2 1.2-1.2 1.7-.7.2-2 1.3-2.9 1.3-.4 0-1 0-1.4-.1-.3-.1-.8-.6-1.3-1.1z"/></g><path d="M 10.67 7.403 C 10.745 7.481 10.853 7.559 10.964 7.596 C 11.038 7.634 11.15 7.674 11.15 7.674 L 11.482 7.674 C 11.666 7.674 11.923 7.596 12.181 7.441 C 12.436 7.326 12.476 7.25 12.659 7.175 C 12.843 7.06 13.025 6.943 12.954 6.904 C 12.877 6.866 12.803 6.904 12.546 7.06 C 12.327 7.211 12.142 7.288 11.923 7.403 C 11.812 7.441 11.664 7.519 11.554 7.519 C 11.443 7.519 11.333 7.519 11.224 7.519 C 11.113 7.519 11.038 7.481 10.929 7.441 C 10.853 7.403 10.816 7.365 10.778 7.365 C 10.704 7.326 10.558 7.175 10.484 7.137 C 10.484 7.137 10.41 7.137 10.448 7.175 C 10.558 7.288 10.595 7.326 10.67 7.403 Z" fill="#634703" style=""/><path d="M 11.77 6.559 C 11.807 6.638 11.882 6.638 11.918 6.674 C 11.955 6.715 11.993 6.715 11.993 6.715 C 12.029 6.674 11.993 6.599 11.955 6.599 C 11.955 6.522 11.77 6.522 11.77 6.559 Z" fill="#634703" style=""/><path d="M 11.181 6.638 C 11.181 6.674 11.255 6.715 11.255 6.674 C 11.293 6.638 11.328 6.599 11.365 6.599 C 11.439 6.559 11.403 6.522 11.293 6.522 C 11.219 6.559 11.219 6.599 11.181 6.638 Z" fill="#634703" style=""/><path d="M 14.791 13.427 L 14.793 13.541 C 14.867 13.696 15.053 13.734 15.199 13.734 C 15.421 13.734 15.64 13.58 15.75 13.427 C 15.75 13.39 15.788 13.35 15.824 13.312 C 15.897 13.196 15.932 13.119 15.969 13.081 C 15.969 13.081 15.932 13.045 15.932 13.006 C 15.895 12.93 15.784 12.853 15.635 12.812 C 15.526 12.774 15.341 12.737 15.267 12.737 C 14.936 12.697 14.751 12.812 14.642 12.93 C 14.642 12.93 14.679 12.93 14.679 12.968 C 14.753 13.045 14.789 13.119 14.791 13.234 C 14.828 13.312 14.791 13.35 14.791 13.427 Z" fill="#455a64" style=""/></svg>
