<?xml version="1.0" encoding="UTF-8" standalone="no"?>
<svg width="24" height="24" viewBox="0 0 24 24" fill="none" xmlns="http://www.w3.org/2000/svg">
<path d="M12.0001 15.6348C13.3264 15.6348 14.4014 16.7099 14.4015 18.0361C14.4015 19.3624 13.3264 20.4375 12.0001 20.4375C10.6738 20.4375 9.59875 19.3624 9.59875 18.0361C9.59881 16.7099 10.6739 15.6348 12.0001 15.6348ZM4.8761 11.125C6.09448 11.125 7.08207 12.1127 7.08215 13.3311C7.08215 14.5495 6.09453 15.5371 4.8761 15.5371C3.65767 15.5371 2.67004 14.5495 2.67004 13.3311C2.67012 12.1127 3.65772 11.125 4.8761 11.125ZM19.1241 11.125C20.3423 11.1252 21.3301 12.1128 21.3302 13.3311C21.3302 14.5493 20.3424 15.5369 19.1241 15.5371C17.9057 15.5371 16.9171 14.5495 16.9171 13.3311C16.9172 12.1127 17.9058 11.125 19.1241 11.125ZM12.0001 8.89258C12.3171 8.89259 12.5743 9.14984 12.5743 9.4668V14.6289C12.5742 14.9458 12.317 15.2021 12.0001 15.2021C11.6832 15.2021 11.426 14.9458 11.4259 14.6289V9.4668C11.4259 9.14984 11.6832 8.89258 12.0001 8.89258ZM8.98743 7.95117C9.19029 7.72856 9.53519 7.71227 9.75793 7.91504C9.98054 8.11784 9.99668 8.46278 9.79407 8.68555L7.48743 11.2188C7.28459 11.4416 6.93973 11.4577 6.71692 11.2549C6.4943 11.052 6.47801 10.7071 6.68079 10.4844L8.98743 7.95117ZM14.2423 7.91504C14.4651 7.71228 14.81 7.72838 15.0128 7.95117L17.3195 10.4844C17.5221 10.707 17.5057 11.052 17.2833 11.2549C17.0605 11.4577 16.7147 11.4416 16.5118 11.2188L14.2062 8.68555C14.0033 8.46273 14.0195 8.11787 14.2423 7.91504ZM12.0001 3.00879C13.4792 3.00883 14.6779 4.20838 14.6779 5.6875C14.6776 7.1664 13.4791 8.36519 12.0001 8.36523C10.5211 8.36523 9.32167 7.16643 9.32141 5.6875C9.32141 4.20835 10.521 3.00879 12.0001 3.00879Z" fill="#FF5A51"/>
</svg>
