<?xml version="1.0" encoding="utf-8"?>
<svg xmlns="http://www.w3.org/2000/svg" width="48" height="48" viewBox="0 0 24 24" fill="none" stroke-width="2" stroke-linecap="round" stroke-linejoin="round" class="feather feather-monitor" xmlns:bx="https://boxy-svg.com"><defs><bx:export><bx:file format="svg" href="#object-0" excluded="true"/><bx:file format="svg" href="#object-1" path="Untitled 2.svg"/><bx:file format="svg" href="#object-2" path="Untitled 3.svg"/><bx:file format="svg" path="Untitled 4.svg"/></bx:export></defs><rect x="2" y="3" width="20" height="14" rx="2" ry="2" style="stroke: #008686;" id="object-0"/><line x1="8" y1="21" x2="16" y2="21" style="stroke: #008686;" id="object-1"/><line x1="12" y1="17" x2="12" y2="21" style="stroke: #008686;" id="object-2"/><circle fill="#DD4814" r="141.732" cx="21.948" cy="20.143" style="" transform="matrix(0.041988, 0, 0, 0.04099, 11.08507, 9.201696)"/><g id="U" fill="#FFFFFF" transform="matrix(0.041988, 0, 0, 0.04099, 12.006645, 10.027335)" style=""><circle cx="-96.3772" r="18.9215"/><path d="M-45.6059,68.395C-62.1655,57.3316-74.4844,40.4175-79.6011,20.6065-73.623,15.7354-69.8047,8.3164-69.8047,0-69.8047-8.3164-73.623-15.7354-79.6011-20.6065-74.4844-40.4175-62.1655-57.3316-45.6059-68.395L-31.7715-45.2212C-45.9824-35.2197-55.2754-18.7026-55.2754,0-55.2754,18.7026-45.9824,35.2197-31.7715,45.2212Z"/></g><g fill="#FFFFFF" transform="matrix(-0.020994, 0.035498, -0.036363, -0.020494, 12.006645, 10.027335)" style=""><circle cx="-96.3772" r="18.9215"/><path d="M-45.6059,68.395C-62.1655,57.3316-74.4844,40.4175-79.6011,20.6065-73.623,15.7354-69.8047,8.3164-69.8047,0-69.8047-8.3164-73.623-15.7354-79.6011-20.6065-74.4844-40.4175-62.1655-57.3316-45.6059-68.395L-31.7715-45.2212C-45.9824-35.2197-55.2754-18.7026-55.2754,0-55.2754,18.7026-45.9824,35.2197-31.7715,45.2212Z"/></g><g fill="#FFFFFF" transform="matrix(-0.020994, -0.035498, 0.036363, -0.020494, 12.006645, 10.027335)" style=""><circle cx="-96.3772" r="18.9215"/><path d="M-45.6059,68.395C-62.1655,57.3316-74.4844,40.4175-79.6011,20.6065-73.623,15.7354-69.8047,8.3164-69.8047,0-69.8047-8.3164-73.623-15.7354-79.6011-20.6065-74.4844-40.4175-62.1655-57.3316-45.6059-68.395L-31.7715-45.2212C-45.9824-35.2197-55.2754-18.7026-55.2754,0-55.2754,18.7026-45.9824,35.2197-31.7715,45.2212Z"/></g></svg>