<?xml version="1.0" encoding="utf-8"?>
<svg xmlns="http://www.w3.org/2000/svg" width="48" height="48" viewBox="0 0 24 24" fill="none" stroke-width="2" stroke-linecap="round" stroke-linejoin="round" class="feather feather-monitor" xmlns:bx="https://boxy-svg.com"><defs><bx:export><bx:file format="svg" href="#object-0" excluded="true"/><bx:file format="svg" href="#object-1" path="Untitled 2.svg"/><bx:file format="svg" href="#object-2" path="Untitled 3.svg"/><bx:file format="svg" path="Untitled 4.svg"/></bx:export></defs><rect x="2" y="3" width="20" height="14" rx="2" ry="2" style="stroke: #008686;" id="object-0"/><line x1="8" y1="21" x2="16" y2="21" style="stroke: #008686;" id="object-1"/><line x1="12" y1="17" x2="12" y2="21" style="stroke: #008686;" id="object-2"/><path d="M 16.564 8.2 C 16.491 8.251 15.196 8.918 15.196 10.401 C 15.196 12.116 16.844 12.725 16.893 12.739 C 16.885 12.775 16.631 13.57 16.023 14.379 C 15.483 15.091 14.917 15.803 14.058 15.803 C 13.197 15.803 12.976 15.345 11.984 15.345 C 11.016 15.345 10.67 15.818 9.886 15.818 C 9.099 15.818 8.549 15.159 7.918 14.35 C 7.186 13.399 6.596 11.922 6.596 10.523 C 6.596 8.275 8.194 7.083 9.769 7.083 C 10.606 7.083 11.301 7.584 11.826 7.584 C 12.326 7.584 13.104 7.052 14.055 7.052 C 14.417 7.052 15.712 7.083 16.564 8.2 Z M 13.605 6.1 C 13.998 5.674 14.276 5.081 14.276 4.49 C 14.276 4.407 14.268 4.326 14.253 4.258 C 13.611 4.281 12.851 4.648 12.392 5.135 C 12.032 5.508 11.694 6.1 11.694 6.701 C 11.694 6.793 11.711 6.882 11.718 6.91 C 11.76 6.917 11.825 6.924 11.891 6.924 C 12.466 6.924 13.186 6.575 13.605 6.1 Z" style="fill: rgb(240, 240, 240);"/></svg>