<?xml version="1.0" encoding="utf-8"?>
<svg xmlns="http://www.w3.org/2000/svg" width="48" height="48" viewBox="0 0 24 24" fill="none" stroke-width="2" stroke-linecap="round" stroke-linejoin="round" class="feather feather-monitor" xmlns:bx="https://boxy-svg.com"><defs><bx:export><bx:file format="svg"/></bx:export></defs><rect x="2" y="3" width="20" height="14" rx="2" ry="2" style="stroke: #008686;" id="object-0"/><line x1="8" y1="21" x2="16" y2="21" style="stroke: #008686;" id="object-1"/><line x1="12" y1="17" x2="12" y2="21" style="stroke: #008686;" id="object-2"/><path class="a737459c-e8c7-4afa-8008-f6cfd15ccda2" d="M 14.228 10.752 C 15.181 10.752 16.559 10.552 16.559 9.405 C 16.559 9.317 16.552 9.229 16.536 9.143 L 15.972 6.65 C 15.843 6.103 15.729 5.849 14.776 5.372 C 14.038 4.987 12.431 4.364 11.952 4.364 C 11.502 4.364 11.372 4.941 10.847 4.941 C 10.337 4.941 9.964 4.511 9.484 4.511 C 9.027 4.511 8.73 4.826 8.501 5.472 C 8.501 5.472 7.862 7.296 7.778 7.565 C 7.765 7.612 7.76 7.663 7.763 7.712 C 7.755 8.419 10.519 10.744 14.228 10.752 M 16.704 9.874 C 16.833 10.505 16.833 10.574 16.833 10.652 C 16.833 11.728 15.637 12.329 14.06 12.329 C 10.497 12.329 7.382 10.22 7.382 8.828 C 7.381 8.634 7.42 8.444 7.496 8.266 C 6.216 8.327 4.556 8.558 4.556 10.036 C 4.556 12.459 10.238 15.446 14.731 15.446 C 18.181 15.446 19.05 13.868 19.05 12.621 C 19.05 11.644 18.212 10.536 16.704 9.874" id="path8" style="fill: rgb(238, 0, 0);"/><path d="M 16.704 9.874 C 16.833 10.505 16.833 10.574 16.833 10.652 C 16.833 11.728 15.637 12.329 14.06 12.329 C 10.497 12.329 7.382 10.22 7.382 8.828 C 7.381 8.634 7.42 8.444 7.496 8.266 L 7.778 7.565 C 7.765 7.612 7.76 7.663 7.763 7.712 C 7.763 8.419 10.527 10.744 14.228 10.744 C 15.181 10.744 16.559 10.544 16.559 9.397 C 16.559 9.309 16.552 9.222 16.536 9.135 L 16.704 9.874 Z" id="path10" style="stroke-width: 1px; paint-order: stroke; fill: rgb(0, 0, 0);"/></svg>