<?xml version="1.0" encoding="UTF-8"?>
<svg id="Layer_1" xmlns="http://www.w3.org/2000/svg" version="1.1" viewBox="0 0 108.23 108.2">
  <!-- Generator: Adobe Illustrator 29.5.1, SVG Export Plug-In . SVG Version: 2.1.0 Build 141)  -->
  <defs>
    <style>
      .st0 {
        fill: #358ccb;
        fill-rule: evenodd;
      }

      .st1 {
        fill: #0f2b4d;
      }
    </style>
  </defs>
  <g>
    <path class="st0" d="M26.33,23.92c13.67.87,24.09,12.69,23.23,26.37-.7,11.1-10.34,19.57-21.41,18.86-4.68-.3-8.77-2.54-11.56-5.88,3.22,11.17,13.26,22.04,28.04,24.96,6.12-1.79,11.83-4.91,16.76-9.25,8.84-7.78,14.11-18.54,14.86-30.3,1.25-19.83-8.13-37.91-23.22-48.69C32.08.41,14.05,12.72,5.42,30.45c5.73-4.51,13.07-7.02,20.91-6.53Z"/>
    <path class="st0" d="M38.38,89.57c-14.73-5.45-27.6-20.12-25.77-36.62-6.83,7.91-7.42,16.85-6.8,25.52.01.02.02.04.03.06,5.9,6.47,14.21,10.77,23.62,11.36,3.01.19,5.99.07,8.91-.33Z"/>
    <path class="st0" d="M58.13.14c13.92,11.55,22.35,29.35,21.12,48.74-1.29,20.38-15.44,36.94-34.02,42.29-.06.02-.12.03-.17.05-4.08,1.16-8.36,1.78-12.77,1.78-1,0-2-.03-3.01-.1-6.71-.42-12.9-2.58-18.18-6,9.89,12.94,25.47,21.29,43.01,21.29,29.89,0,54.11-24.23,54.11-54.11S86.14,2.19,58.13.14Z"/>
    <path class="st0" d="M17.99,44.26s.02,0,.02-.01c1.95-1.37,4.32-2.17,6.87-2.17,6.62,0,12.01,5.39,12.01,12.01,0,6-4.43,10.97-10.18,11.85.53.1,1.07.18,1.63.21,9.47.58,17.62-6.6,18.22-16.05.76-12.02-8.4-22.41-20.42-23.17-9.45-.6-18.11,3.65-23.55,10.59-1.68,5.22-2.59,10.79-2.59,16.57s.96,11.57,2.7,16.88c.5-9.23,3.77-18.83,15.29-26.7Z"/>
  </g>
  <path class="st1" d="M24.88,45.08c-4.96,0-9,4.04-9,9s4.04,9,9,9,9-4.04,9-9-4.04-9-9-9Z"/>
</svg>