<svg width="24" height="24" viewBox="0 0 24 24" fill="none" xmlns="http://www.w3.org/2000/svg">
<path d="M12.0001 15.6348C13.3263 15.6348 14.4014 16.7099 14.4015 18.0361C14.4015 19.3624 13.3264 20.4375 12.0001 20.4375C10.6738 20.4375 9.59872 19.3624 9.59872 18.0361C9.59878 16.7099 10.6738 15.6348 12.0001 15.6348ZM4.87607 11.125C6.09445 11.125 7.08204 12.1127 7.08212 13.3311C7.08212 14.5495 6.0945 15.5371 4.87607 15.5371C3.65764 15.5371 2.67001 14.5495 2.67001 13.3311C2.67009 12.1127 3.65769 11.125 4.87607 11.125ZM19.1241 11.125C20.3423 11.1252 21.3301 12.1128 21.3302 13.3311C21.3302 14.5493 20.3423 15.5369 19.1241 15.5371C17.9057 15.5371 16.9171 14.5495 16.9171 13.3311C16.9172 12.1127 17.9057 11.125 19.1241 11.125ZM12.0001 8.89258C12.317 8.89259 12.5743 9.14984 12.5743 9.4668V14.6289C12.5742 14.9458 12.317 15.2021 12.0001 15.2021C11.6832 15.2021 11.426 14.9458 11.4259 14.6289V9.4668C11.4259 9.14984 11.6831 8.89258 12.0001 8.89258ZM8.9874 7.95117C9.19026 7.72856 9.53516 7.71227 9.7579 7.91504C9.98051 8.11784 9.99665 8.46278 9.79404 8.68555L7.4874 11.2188C7.28456 11.4416 6.9397 11.4577 6.71689 11.2549C6.49427 11.052 6.47798 10.7071 6.68076 10.4844L8.9874 7.95117ZM14.2423 7.91504C14.4651 7.71228 14.81 7.72838 15.0128 7.95117L17.3194 10.4844C17.5221 10.707 17.5057 11.052 17.2833 11.2549C17.0605 11.4577 16.7146 11.4416 16.5118 11.2188L14.2061 8.68555C14.0033 8.46273 14.0195 8.11787 14.2423 7.91504ZM12.0001 3.00879C13.4792 3.00883 14.6778 4.20838 14.6778 5.6875C14.6776 7.1664 13.479 8.36519 12.0001 8.36523C10.5211 8.36523 9.32164 7.16643 9.32138 5.6875C9.32138 4.20835 10.5209 3.00879 12.0001 3.00879Z" fill="white"/>
</svg>
