<?xml version="1.0" encoding="UTF-8" standalone="no"?>
<!-- Created with Inkscape (http://www.inkscape.org/) -->

<svg
   width="1904"
   height="277"
   viewBox="0 0 1904 277"
   version="1.1"
   id="svg1"
   inkscape:version="1.4 (e7c3feb100, 2024-10-09)"
   sodipodi:docname="cli-banner-light.svg"
   xmlns:inkscape="http://www.inkscape.org/namespaces/inkscape"
   xmlns:sodipodi="http://sodipodi.sourceforge.net/DTD/sodipodi-0.dtd"
   xmlns="http://www.w3.org/2000/svg"
   xmlns:svg="http://www.w3.org/2000/svg">
  <sodipodi:namedview
     id="namedview1"
     pagecolor="#000000"
     bordercolor="#000000"
     borderopacity="0.25"
     inkscape:showpageshadow="2"
     inkscape:pageopacity="0.0"
     inkscape:pagecheckerboard="true"
     inkscape:deskcolor="#d1d1d1"
     inkscape:document-units="px"
     inkscape:zoom="1.6430136"
     inkscape:cx="1437.9066"
     inkscape:cy="81.253132"
     inkscape:window-width="2048"
     inkscape:window-height="1223"
     inkscape:window-x="0"
     inkscape:window-y="0"
     inkscape:window-maximized="1"
     inkscape:current-layer="layer1" />
  <defs
     id="defs1">
    <rect
       x="24.078564"
       y="126.12581"
       width="7229.1055"
       height="1103.1608"
       id="rect1" />
  </defs>
  <g
     inkscape:label="Layer 1"
     inkscape:groupmode="layer"
     id="layer1">
    <path
       style="font-size:143.622px;font-family:'JetBrains Mono';-inkscape-font-specification:'JetBrains Mono';white-space:pre;fill:#23282f"
       d="M 24.078125,298.14498 H 110.25132 V 108.56395 H 24.078125 Z m 86.173245,0 h 86.1732 V 108.56395 h -86.1732 z m 136.44095,14.3622 h 14.3622 V 180.37494 h -67.50234 v 14.3622 h 53.14014 z m -28.7244,0 h 14.3622 V 209.09934 h -38.77794 v 14.3622 h 24.41574 z m 236.97645,-14.3622 h 86.17319 V 108.56395 h -86.17319 z m 86.17324,0 h 86.1732 V 108.56395 h -86.1732 z m 136.44098,14.3622 h 14.3622 V 180.37494 h -67.50234 v 14.3622 h 53.14014 z m -28.7244,0 h 14.3622 V 209.09934 h -38.77794 v 14.3622 h 24.41574 z m 64.62992,-14.3622 h 86.1732 V 108.56395 h -86.1732 z m 86.17322,0 h 86.1732 V 108.56395 h -86.1732 z m 86.17328,0 H 971.9838 V 108.56395 h -86.17319 z m 86.17328,0 h 86.17321 V 108.56395 h -86.17321 z m 86.17321,0 h 86.1732 V 108.56395 h -86.1732 z m 86.1732,0 h 86.1732 V 108.56395 h -86.1732 z m 86.1734,0 h 86.1732 V 108.56395 h -86.1732 z m 136.4409,14.3622 h 14.3622 V 180.37494 h -67.5024 v 14.3622 h 53.1402 z m -28.7244,0 h 14.3622 V 209.09934 h -38.778 v 14.3622 h 24.4158 z m 64.6299,-14.3622 h 86.1732 V 108.56395 h -86.1732 z m 86.1732,0 h 86.1732 V 108.56395 h -86.1732 z m 136.4409,14.3622 h 14.3622 V 180.37494 h -67.5023 v 14.3622 h 53.1401 z m -28.7244,0 h 14.3622 V 209.09934 h -38.7779 v 14.3622 h 24.4157 z m 323.1498,-14.3622 h 86.1732 V 108.56395 h -86.1732 z m 86.1733,0 h 86.1732 V 108.56395 h -86.1732 z m 136.4409,14.3622 h 14.3622 V 180.37494 h -67.5024 v 14.3622 h 53.1402 z m -28.7244,0 h 14.3622 V 209.09934 h -38.778 v 14.3622 h 24.4158 z m 64.63,-14.3622 h 86.1732 V 108.56395 h -86.1732 z m 86.1731,0 h 86.1732 V 108.56395 h -86.1732 z m 136.4411,14.3622 h 14.3622 V 180.37494 h -67.5024 v 14.3622 h 53.1402 z m -28.7244,0 h 14.3622 V 209.09934 h -38.778 v 14.3622 h 24.4158 z m 64.63,-14.3622 h 86.1732 V 108.56395 h -86.1732 z m 86.1731,0 h 86.1732 V 108.56395 h -86.1732 z m 86.1733,0 h 86.1732 V 108.56395 h -86.1732 z m 136.4408,14.3622 h 14.3622 V 180.37494 h -67.5023 v 14.3622 h 53.1401 z m -28.7244,0 h 14.3622 V 209.09934 h -38.7779 v 14.3622 h 24.4157 z m 323.1498,-14.3622 h 86.1732 V 108.56395 h -86.1732 z m 86.1731,0 h 86.1732 V 108.56395 h -86.1732 z m 136.4411,14.3622 h 14.3622 V 180.37494 h -67.5024 v 14.3622 h 53.1402 z m -28.7244,0 h 14.3622 V 209.09934 h -38.778 v 14.3622 h 24.4158 z m 64.63,-14.3622 h 86.1732 V 108.56395 h -86.1732 z m 86.1731,0 h 86.1732 V 108.56395 h -86.1732 z m 86.1734,0 h 86.1732 V 108.56395 h -86.1732 z m 86.1733,0 h 86.1732 V 108.56395 h -86.1732 z m 86.1731,0 h 86.1732 V 108.56395 h -86.1732 z m 86.1733,0 h 86.1732 V 108.56395 h -86.1732 z m 136.4411,14.3622 h 14.3622 V 180.37494 h -67.5024 v 14.3622 h 53.1402 z m -28.7244,0 h 14.3622 V 209.09934 h -38.778 v 14.3622 h 24.4158 z m 236.9762,-14.3622 h 86.1732 V 108.56395 h -86.1732 z m 86.1733,0 h 86.1732 V 108.56395 h -86.1732 z m 86.1734,0 h 86.1732 V 108.56395 h -86.1732 z m 86.1733,0 h 86.1732 V 108.56395 h -86.1732 z m 86.1729,0 h 86.1732 V 108.56395 h -86.1732 z m 86.1733,0 h 86.1732 V 108.56395 h -86.1732 z m 136.4411,14.3622 h 14.3622 V 180.37494 h -67.5024 v 14.3622 h 53.1402 z m -28.7244,0 h 14.3622 V 209.09934 h -38.778 v 14.3622 h 24.4158 z m 150.8033,-14.3622 h 86.1732 V 108.56395 h -86.1732 z m 86.1734,0 h 86.1732 V 108.56395 h -86.1732 z m 86.1728,0 h 86.1732 V 108.56395 h -86.1732 z m 86.1734,0 h 86.1732 V 108.56395 h -86.1732 z m 86.1733,0 h 86.1732 V 108.56395 h -86.1732 z m 86.1733,0 h 86.1732 V 108.56395 h -86.1732 z m 86.1734,0 h 86.1732 V 108.56395 h -86.1732 z m 86.1728,0 h 86.1732 V 108.56395 h -86.1732 z m 136.4411,14.3622 h 14.3622 V 180.37494 h -67.5024 v 14.3622 h 53.1402 z m -28.7244,0 h 14.3622 V 209.09934 h -38.778 v 14.3622 h 24.4158 z m 64.63,-14.3622 h 86.1732 V 108.56395 h -86.1732 z m 86.1734,0 h 86.1732 V 108.56395 h -86.1732 z m 136.441,14.3622 h 14.3622 V 180.37494 h -67.5023 v 14.3622 h 53.1401 z m -28.7244,0 h 14.3622 V 209.09934 h -38.7779 v 14.3622 h 24.4157 z m 495.4958,-14.3622 h 86.1732 V 108.56395 h -86.1732 z m 86.1733,0 h 86.1732 V 108.56395 h -86.1732 z m 136.441,14.3622 h 14.3622 V 180.37494 h -67.5023 v 14.3622 h 53.1401 z m -28.7244,0 h 14.3622 V 209.09934 h -38.7779 v 14.3622 h 24.4157 z m 64.6301,-14.3622 h 86.1732 V 108.56395 h -86.1732 z m 86.1733,0 h 86.1732 V 108.56395 h -86.1732 z m 86.1734,0 h 86.1732 V 108.56395 h -86.1732 z m 86.1728,0 h 86.1732 V 108.56395 h -86.1732 z m 86.1733,0 h 86.1732 V 108.56395 h -86.1732 z m 86.1734,0 h 86.1732 V 108.56395 h -86.1732 z m 136.441,14.3622 h 14.3622 V 180.37494 h -67.5023 v 14.3622 h 53.1401 z m -28.7244,0 h 14.3622 V 209.09934 h -38.7779 v 14.3622 h 24.4157 z M 24.078125,479.53405 H 110.25132 V 289.95302 H 24.078125 Z m 86.173245,0 h 86.1732 V 289.95302 h -86.1732 z m 136.44095,14.3622 h 14.3622 V 275.59082 h -14.3622 z m -28.7244,0 h 14.3622 V 275.59082 h -14.3622 z m 150.8032,-14.3622 h 86.17319 V 289.95302 h -86.17319 z m 86.17325,0 h 86.17319 V 289.95302 h -86.17319 z m 107.71654,14.3622 h 14.3622 V 376.12621 h 53.14014 v -14.3622 h -67.50234 z m 28.7244,0 h 14.3622 v -89.04564 h 24.41574 v -14.3622 h -38.77794 z m 33.03314,-89.04564 h 67.50234 V 275.59082 h -14.3622 v 114.89759 h -53.14014 z m 0,-28.7244 h 38.77794 V 275.59082 h -14.3622 v 86.17319 h -24.41574 z m 89.04566,103.40784 h 86.1732 V 289.95302 h -86.1732 z m 86.17322,0 h 86.1732 V 289.95302 h -86.1732 z m 107.71658,14.3622 h 14.3622 V 376.12621 h 53.14013 v -14.3622 h -67.50233 z m 28.7244,0 h 14.3622 v -89.04564 h 24.41573 v -14.3622 h -38.77793 z m 33.03314,-117.77004 h 91.91805 v -14.3622 h -91.91805 z m 0,28.7244 h 91.91805 v -14.3622 h -91.91805 z m 86.17325,-28.7244 h 91.918 v -14.3622 h -91.918 z m 0,28.7244 h 91.918 v -14.3622 h -91.918 z m 86.1732,-28.7244 h 91.9181 v -14.3622 h -91.9181 z m 0,28.7244 h 91.9181 v -14.3622 h -91.9181 z m 86.1733,-28.7244 h 91.9181 v -14.3622 h -91.9181 z m 0,28.7244 h 91.9181 v -14.3622 h -91.9181 z m 86.1732,0 h 67.5024 V 275.59082 h -14.3622 v 114.89759 h -53.1402 z m 0,-28.7244 h 38.778 V 275.59082 h -14.3622 v 86.17319 h -24.4158 z m 89.0457,103.40784 h 86.1732 V 289.95302 h -86.1732 z m 86.1732,0 h 86.1732 V 289.95302 h -86.1732 z m 136.4409,14.3622 h 14.3622 V 275.59082 h -14.3622 z m -28.7244,0 h 14.3622 V 275.59082 h -14.3622 z m 323.1498,-14.3622 h 86.1732 V 289.95302 h -86.1732 z m 86.1733,0 h 86.1732 V 289.95302 h -86.1732 z m 136.4409,14.3622 h 14.3622 V 275.59082 h -14.3622 z m -28.7244,0 h 14.3622 V 275.59082 h -14.3622 z m 64.63,-14.3622 h 86.1732 V 289.95302 h -86.1732 z m 86.1731,0 h 86.1732 V 289.95302 h -86.1732 z m 136.4411,14.3622 h 14.3622 V 275.59082 h -14.3622 z m -28.7244,0 h 14.3622 V 275.59082 h -14.3622 z m 64.63,-14.3622 h 86.1732 V 289.95302 h -86.1732 z m 86.1731,0 h 86.1732 V 289.95302 h -86.1732 z m 86.1733,0 h 86.1732 V 289.95302 h -86.1732 z m 86.1731,0 h 86.1732 V 289.95302 h -86.1732 z m 136.4411,14.3622 h 14.3622 V 361.76401 h -67.5024 v 14.3622 h 53.1402 z m -28.7244,0 h 14.3622 V 390.48841 h -38.778 v 14.3622 h 24.4158 z m 236.9764,-14.3622 h 86.1732 V 289.95302 h -86.1732 z m 86.1731,0 h 86.1732 V 289.95302 h -86.1732 z m 136.4411,14.3622 h 14.3622 V 275.59082 h -14.3622 z m -28.7244,0 h 14.3622 V 275.59082 h -14.3622 z m 64.63,-14.3622 h 86.1732 V 289.95302 h -86.1732 z m 86.1731,0 h 86.1732 V 289.95302 h -86.1732 z m 107.7167,14.3622 h 14.3622 V 376.12621 h 53.1401 v -14.3622 h -67.5023 z m 28.7244,0 h 14.3622 v -89.04564 h 24.4157 v -14.3622 h -38.7779 z m 33.0332,-117.77004 h 91.918 v -14.3622 h -91.918 z m 0,28.7244 h 91.918 v -14.3622 h -91.918 z m 86.1731,-28.7244 h 91.918 v -14.3622 h -91.918 z m 0,28.7244 h 91.918 v -14.3622 h -91.918 z m 89.0457,74.68344 h 86.1732 V 289.95302 h -86.1732 z m 86.1734,0 h 86.1732 V 289.95302 h -86.1732 z m 136.4408,14.3622 h 14.3622 V 361.76401 h -67.5024 v 14.3622 h 53.1402 z m -28.7244,0 h 14.3622 V 390.48841 h -38.778 v 14.3622 h 24.4158 z m 64.63,-14.3622 h 86.1732 V 289.95302 h -86.1732 z m 86.1731,0 h 86.1732 V 289.95302 h -86.1732 z m 107.7166,14.3622 h 14.3622 V 376.12621 h 53.1402 v -14.3622 h -67.5024 z m 28.7244,0 h 14.3622 v -89.04564 h 24.4158 v -14.3622 h -38.778 z m 33.0332,-117.77004 h 91.9181 v -14.3622 h -91.9181 z m 0,28.7244 h 91.9181 v -14.3622 h -91.9181 z m 86.1734,-28.7244 h 91.9181 v -14.3622 h -91.9181 z m 0,28.7244 h 91.9181 v -14.3622 h -91.9181 z m 86.1728,-28.7244 h 91.9181 v -14.3622 h -91.9181 z m 0,28.7244 h 91.9181 v -14.3622 h -91.9181 z m 89.0458,74.68344 h 86.1732 V 289.95302 h -86.1732 z m 86.1734,0 h 86.1732 V 289.95302 h -86.1732 z m 136.441,14.3622 h 14.3622 V 361.76401 h -67.5023 v 14.3622 h 53.1401 z m -28.7244,0 h 14.3622 V 390.48841 h -38.7779 v 14.3622 h 24.4157 z m 86.1733,-89.04564 h 67.5024 v -14.3622 h -53.1402 V 275.59082 h -14.3622 z m 28.7244,-28.7244 h 38.778 v -14.3622 h -24.4158 v -86.17319 h -14.3622 z m 33.0332,0 h 91.9181 v -14.3622 h -91.9181 z m 0,28.7244 h 91.9181 v -14.3622 h -91.9181 z m 86.1729,-28.7244 h 91.9181 v -14.3622 h -91.9181 z m 0,28.7244 h 91.9181 v -14.3622 h -91.9181 z m 89.0458,74.68344 h 86.1732 V 289.95302 h -86.1732 z m 86.1733,0 h 86.1732 V 289.95302 h -86.1732 z m 107.7166,14.3622 h 14.3622 V 376.12621 h 53.1402 v -14.3622 h -67.5024 z m 28.7244,0 h 14.3622 v -89.04564 h 24.4158 v -14.3622 h -38.778 z m 33.0332,-117.77004 h 91.9181 v -14.3622 h -91.9181 z m 0,28.7244 h 91.9181 v -14.3622 h -91.9181 z m 86.1729,-28.7244 h 91.9181 v -14.3622 h -91.9181 z m 0,28.7244 h 91.9181 v -14.3622 h -91.9181 z m 86.1733,0 h 67.5024 V 275.59082 h -14.3622 v 114.89759 h -53.1402 z m 0,-28.7244 h 38.778 V 275.59082 h -14.3622 v 86.17319 h -24.4158 z m 89.0458,103.40784 h 86.1732 V 289.95302 h -86.1732 z m 86.1734,0 h 86.1732 V 289.95302 h -86.1732 z m 136.441,14.3622 h 14.3622 V 275.59082 h -14.3622 z m -28.7244,0 h 14.3622 V 275.59082 h -14.3622 z m 495.4958,-14.3622 h 86.1732 V 289.95302 h -86.1732 z m 86.1733,0 h 86.1732 V 289.95302 h -86.1732 z m 136.441,14.3622 h 14.3622 V 275.59082 h -14.3622 z m -28.7244,0 h 14.3622 V 275.59082 h -14.3622 z m 64.6301,-14.3622 h 86.1732 V 289.95302 h -86.1732 z m 86.1733,0 h 86.1732 V 289.95302 h -86.1732 z m 107.7167,14.3622 h 14.3622 V 376.12621 h 53.1401 v -14.3622 h -67.5023 z m 28.7244,0 h 14.3622 v -89.04564 h 24.4157 v -14.3622 h -38.7779 z m 33.0327,-117.77004 h 91.918 v -14.3622 h -91.918 z m 0,28.7244 h 91.918 v -14.3622 h -91.918 z m 86.1733,-28.7244 h 91.9181 v -14.3622 h -91.9181 z m 0,28.7244 h 91.9181 v -14.3622 h -91.9181 z m 89.0458,74.68344 h 86.1732 V 289.95302 h -86.1732 z m 86.1733,0 h 86.1732 V 289.95302 h -86.1732 z m 136.4411,14.3622 h 14.3622 V 361.76401 h -67.5024 v 14.3622 h 53.1402 z m -28.7244,0 h 14.3622 V 390.48841 h -38.778 v 14.3622 h 24.4158 z M 24.078125,660.92312 H 110.25132 V 471.34208 H 24.078125 Z m 86.173245,0 h 86.1732 V 471.34208 h -86.1732 z m 86.17325,0 h 86.1732 V 471.34208 h -86.1732 z m 86.17325,0 h 86.1732 V 471.34208 h -86.1732 z m 86.17325,0 h 86.17319 V 471.34208 h -86.17319 z m 107.71655,14.3622 h 14.36219 V 557.51528 H 543.99 v -14.3622 h -67.50233 z m 28.72439,0 h 14.3622 V 586.23968 H 543.99 v -14.3622 h -38.77794 z m 33.03311,-89.04564 h 67.50234 v -129.2598 h -14.3622 v 114.8976 h -53.14014 z m 0,-28.7244 h 38.77794 v -100.5354 h -14.3622 v 86.1732 h -24.41574 z m 175.21894,103.40784 h 86.1732 V 471.34208 h -86.1732 z m 86.17322,0 h 86.1732 V 471.34208 h -86.1732 z m 86.17328,0 H 971.9838 V 471.34208 h -86.17319 z m 86.17328,0 h 86.17321 V 471.34208 h -86.17321 z m 86.17321,0 h 86.1732 V 471.34208 h -86.1732 z m 136.4409,14.3622 h 14.3622 V 543.15308 h -67.5023 v 14.3622 h 53.1401 z m -28.7244,0 h 14.3622 V 571.87748 h -38.7779 v 14.3622 h 24.4157 z m 236.9765,-14.3622 h 86.1732 V 471.34208 h -86.1732 z m 86.1732,0 h 86.1732 V 471.34208 h -86.1732 z m 136.4409,14.3622 h 14.3622 V 456.97988 h -14.3622 z m -28.7244,0 h 14.3622 V 456.97988 h -14.3622 z m 323.1498,-14.3622 h 86.1732 V 471.34208 h -86.1732 z m 86.1733,0 h 86.1732 V 471.34208 h -86.1732 z m 136.4409,14.3622 h 14.3622 V 456.97988 h -14.3622 z m -28.7244,0 h 14.3622 V 456.97988 h -14.3622 z m 64.63,-14.3622 h 86.1732 V 471.34208 h -86.1732 z m 86.1731,0 h 86.1732 V 471.34208 h -86.1732 z m 136.4411,14.3622 h 14.3622 V 456.97988 h -14.3622 z m -28.7244,0 h 14.3622 V 456.97988 h -14.3622 z m 64.63,-14.3622 h 86.1732 V 471.34208 h -86.1732 z m 86.1731,0 h 86.1732 V 471.34208 h -86.1732 z m 107.7166,14.3622 h 14.3622 V 557.51528 h 53.1402 v -14.3622 h -67.5024 z m 28.7244,0 h 14.3622 v -89.04564 h 24.4158 v -14.3622 h -38.778 z m 35.9054,-14.3622 h 86.1732 V 471.34208 h -86.1732 z m 86.1734,0 h 86.1732 V 471.34208 h -86.1732 z m 136.441,14.3622 h 14.3622 V 543.15308 h -67.5023 v 14.3622 h 53.1401 z m -28.7244,0 h 14.3622 V 571.87748 h -38.7779 v 14.3622 h 24.4157 z m 150.8031,-14.3622 h 86.1732 V 471.34208 h -86.1732 z m 86.1731,0 h 86.1732 V 471.34208 h -86.1732 z m 136.4411,14.3622 h 14.3622 V 456.97988 h -14.3622 z m -28.7244,0 h 14.3622 V 456.97988 h -14.3622 z m 64.63,-14.3622 h 86.1732 V 471.34208 h -86.1732 z m 86.1731,0 h 86.1732 V 471.34208 h -86.1732 z m 86.1734,0 h 86.1732 V 471.34208 h -86.1732 z m 86.1733,0 h 86.1732 V 471.34208 h -86.1732 z m 86.1731,0 h 86.1732 V 471.34208 h -86.1732 z m 86.1733,0 h 86.1732 V 471.34208 h -86.1732 z m 107.7167,14.3622 h 14.3622 V 557.51528 h 53.1401 v -14.3622 h -67.5023 z m 28.7244,0 h 14.3622 v -89.04564 h 24.4157 v -14.3622 h -38.7779 z m 33.0329,-89.04564 h 67.5024 v -129.2598 h -14.3622 v 114.8976 h -53.1402 z m 0,-28.7244 h 38.778 v -100.5354 h -14.3622 v 86.1732 h -24.4158 z m 89.0458,103.40784 h 86.1732 V 471.34208 h -86.1732 z m 86.1731,0 h 86.1732 V 471.34208 h -86.1732 z m 136.441,14.3622 h 14.3622 V 456.97988 h -14.3622 z m -28.7244,0 h 14.3622 V 456.97988 h -14.3622 z m 323.1496,-14.3622 h 86.1732 V 471.34208 h -86.1732 z m 86.1734,0 h 86.1732 V 471.34208 h -86.1732 z m 136.441,14.3622 h 14.3622 V 456.97988 h -14.3622 z m -28.7244,0 h 14.3622 V 456.97988 h -14.3622 z m 323.1496,-14.3622 h 86.1732 V 471.34208 h -86.1732 z m 86.1733,0 h 86.1732 V 471.34208 h -86.1732 z m 136.441,14.3622 h 14.3622 V 456.97988 h -14.3622 z m -28.7244,0 h 14.3622 V 456.97988 h -14.3622 z m 323.1496,-14.3622 h 86.1732 V 471.34208 h -86.1732 z m 86.1734,0 h 86.1732 V 471.34208 h -86.1732 z m 136.441,14.3622 h 14.3622 V 456.97988 h -14.3622 z m -28.7244,0 h 14.3622 V 456.97988 h -14.3622 z m 495.4958,-14.3622 h 86.1732 V 471.34208 h -86.1732 z m 86.1733,0 h 86.1732 V 471.34208 h -86.1732 z m 136.441,14.3622 h 14.3622 V 456.97988 h -14.3622 z m -28.7244,0 h 14.3622 V 456.97988 h -14.3622 z m 64.6301,-14.3622 h 86.1732 V 471.34208 h -86.1732 z m 86.1733,0 h 86.1732 V 471.34208 h -86.1732 z m 86.1734,0 h 86.1732 V 471.34208 h -86.1732 z m 86.1728,0 h 86.1732 V 471.34208 h -86.1732 z m 86.1733,0 h 86.1732 V 471.34208 h -86.1732 z m 86.1734,0 h 86.1732 V 471.34208 h -86.1732 z m 107.7166,14.3622 h 14.3622 V 557.51528 h 53.1402 v -14.3622 h -67.5024 z m 28.7244,0 h 14.3622 v -89.04564 h 24.4158 v -14.3622 h -38.778 z m 33.0332,-89.04564 h 67.5024 v -129.2598 h -14.3622 v 114.8976 h -53.1402 z m 0,-28.7244 h 38.778 v -100.5354 h -14.3622 v 86.1732 h -24.4158 z M 24.078125,842.31222 H 110.25132 V 652.73118 H 24.078125 Z m 86.173245,0 h 86.1732 V 652.73118 h -86.1732 z m 107.71655,14.36219 h 14.3622 V 738.90438 h 53.14014 v -14.3622 h -67.50234 z m 28.7244,0 h 14.3622 v -89.04563 h 24.41574 v -14.3622 h -38.77794 z m 33.03311,-117.77003 h 91.91808 v -14.3622 h -91.91808 z m 0,28.7244 h 91.91808 v -14.3622 h -91.91808 z m 89.04569,74.68344 h 86.17319 V 652.73118 h -86.17319 z m 86.17325,0 h 86.17319 V 652.73118 h -86.17319 z m 136.44094,14.36219 h 14.3622 V 724.54218 h -67.50234 v 14.3622 h 53.14014 z m -28.7244,0 h 14.3622 V 753.26658 h -38.77794 v 14.3622 h 24.41574 z m 150.8032,-14.36219 h 86.1732 V 652.73118 h -86.1732 z m 86.17322,0 h 86.1732 V 652.73118 h -86.1732 z m 107.71658,14.36219 h 14.3622 V 738.90438 h 53.14013 v -14.3622 h -67.50233 z m 28.7244,0 h 14.3622 v -89.04563 h 24.41573 v -14.3622 h -38.77793 z m 33.03314,-117.77003 h 91.91805 v -14.3622 h -91.91805 z m 0,28.7244 h 91.91805 v -14.3622 h -91.91805 z m 86.17325,-28.7244 h 91.918 v -14.3622 h -91.918 z m 0,28.7244 h 91.918 v -14.3622 h -91.918 z m 86.1732,0 h 67.5023 v -129.2598 h -14.3622 v 114.8976 h -53.1401 z m 0,-28.7244 h 38.7779 v -100.5354 h -14.3622 v 86.1732 h -24.4157 z m 282.9355,28.7244 h 67.5023 v -14.3622 h -53.1401 v -114.8976 h -14.3622 z m 28.7244,-28.7244 h 38.7779 v -14.3622 H 1467.48 v -86.1732 h -14.3622 z m 35.9055,103.40784 h 86.1732 V 652.73118 h -86.1732 z m 86.1732,0 h 86.1732 V 652.73118 h -86.1732 z m 136.4411,14.36219 h 14.3622 V 724.54218 h -67.5024 v 14.3622 h 53.1402 z m -28.7244,0 h 14.3622 V 753.26658 h -38.778 v 14.3622 h 24.4158 z m 150.8031,-14.36219 h 86.1732 V 652.73118 h -86.1732 z m 86.1733,0 h 86.1732 V 652.73118 h -86.1732 z m 107.7166,14.36219 h 14.3622 V 738.90438 h 53.1401 v -14.3622 h -67.5023 z m 28.7244,0 h 14.3622 v -89.04563 h 24.4157 v -14.3622 h -38.7779 z m 33.033,-89.04563 h 67.5024 v -129.2598 h -14.3622 v 114.8976 h -53.1402 z m 0,-28.7244 h 38.778 v -100.5354 h -14.3622 v 86.1732 h -24.4158 z m 89.0458,103.40784 h 86.1732 V 652.73118 h -86.1732 z m 86.1731,0 h 86.1732 V 652.73118 h -86.1732 z m 136.4411,14.36219 h 14.3622 V 638.36898 h -14.3622 z m -28.7244,0 h 14.3622 V 638.36898 h -14.3622 z m 64.63,-14.36219 h 86.1732 V 652.73118 h -86.1732 z m 86.1731,0 h 86.1732 V 652.73118 h -86.1732 z m 136.441,14.36219 h 14.3622 V 638.36898 h -14.3622 z m -28.7244,0 h 14.3622 V 638.36898 h -14.3622 z m 86.1731,-89.04563 h 67.5024 v -14.3622 h -53.1402 v -114.8976 h -14.3622 z m 28.7244,-28.7244 h 38.778 v -14.3622 h -24.4158 v -86.1732 h -14.3622 z m 35.9057,103.40784 h 86.1732 V 652.73118 h -86.1732 z m 86.1733,0 h 86.1732 V 652.73118 h -86.1732 z m 136.4408,14.36219 h 14.3622 V 724.54218 h -67.5023 v 14.3622 h 53.1401 z m -28.7244,0 h 14.3622 V 753.26658 h -38.7779 v 14.3622 h 24.4157 z m 64.63,-14.36219 h 86.1732 V 652.73118 h -86.1732 z m 86.1731,0 h 86.1732 V 652.73118 h -86.1732 z m 136.4411,14.36219 h 14.3622 V 638.36898 h -14.3622 z m -28.7244,0 h 14.3622 V 638.36898 h -14.3622 z m 64.63,-14.36219 h 86.1732 V 652.73118 h -86.1732 z m 86.1731,0 h 86.1732 V 652.73118 h -86.1732 z m 107.7167,14.36219 h 14.3622 V 738.90438 h 53.1401 v -14.3622 h -67.5023 z m 28.7244,0 h 14.3622 v -89.04563 h 24.4157 v -14.3622 h -38.7779 z m 33.0332,-117.77003 h 91.918 v -14.3622 h -91.918 z m 0,28.7244 h 91.918 v -14.3622 h -91.918 z m 86.1731,-28.7244 h 91.918 v -14.3622 h -91.918 z m 0,28.7244 h 91.918 v -14.3622 h -91.918 z m 89.0457,74.68344 h 86.1732 V 652.73118 h -86.1732 z m 86.1734,0 h 86.1732 V 652.73118 h -86.1732 z m 136.4408,14.36219 h 14.3622 V 724.54218 h -67.5024 v 14.3622 h 53.1402 z m -28.7244,0 h 14.3622 V 753.26658 h -38.778 v 14.3622 h 24.4158 z m 64.63,-14.36219 h 86.1732 V 652.73118 h -86.1732 z m 86.1731,0 h 86.1732 V 652.73118 h -86.1732 z m 136.441,14.36219 h 14.3622 V 638.36898 h -14.3622 z m -28.7244,0 h 14.3622 V 638.36898 h -14.3622 z m 323.1496,-14.36219 h 86.1732 V 652.73118 h -86.1732 z m 86.1734,0 h 86.1732 V 652.73118 h -86.1732 z m 136.441,14.36219 h 14.3622 V 638.36898 h -14.3622 z m -28.7244,0 h 14.3622 V 638.36898 h -14.3622 z m 323.1496,-14.36219 h 86.1732 V 652.73118 h -86.1732 z m 86.1733,0 h 86.1732 V 652.73118 h -86.1732 z m 136.441,14.36219 h 14.3622 V 638.36898 h -14.3622 z m -28.7244,0 h 14.3622 V 638.36898 h -14.3622 z m 323.1496,-14.36219 h 86.1732 V 652.73118 h -86.1732 z m 86.1734,0 h 86.1732 V 652.73118 h -86.1732 z m 136.441,14.36219 h 14.3622 V 638.36898 h -14.3622 z m -28.7244,0 h 14.3622 V 638.36898 h -14.3622 z m 495.4958,-14.36219 h 86.1732 V 652.73118 h -86.1732 z m 86.1733,0 h 86.1732 V 652.73118 h -86.1732 z m 136.441,14.36219 h 14.3622 V 638.36898 h -14.3622 z m -28.7244,0 h 14.3622 V 638.36898 h -14.3622 z m 64.6301,-14.36219 h 86.1732 V 652.73118 h -86.1732 z m 86.1733,0 h 86.1732 V 652.73118 h -86.1732 z m 107.7167,14.36219 h 14.3622 V 738.90438 h 53.1401 v -14.3622 h -67.5023 z m 28.7244,0 h 14.3622 v -89.04563 h 24.4157 v -14.3622 h -38.7779 z m 33.0327,-117.77003 h 91.918 v -14.3622 h -91.918 z m 0,28.7244 h 91.918 v -14.3622 h -91.918 z m 86.1733,-28.7244 h 91.9181 v -14.3622 h -91.9181 z m 0,28.7244 h 91.9181 v -14.3622 h -91.9181 z m 89.0458,74.68344 h 86.1732 V 652.73118 h -86.1732 z m 86.1733,0 h 86.1732 V 652.73118 h -86.1732 z m 136.4411,14.36219 h 14.3622 V 724.54218 h -67.5024 v 14.3622 h 53.1402 z m -28.7244,0 h 14.3622 V 753.26658 h -38.778 v 14.3622 h 24.4158 z M 24.078125,1023.7013 H 110.25132 V 834.12022 H 24.078125 Z m 86.173245,0 h 86.1732 V 834.12022 h -86.1732 z m 136.44095,14.3622 h 14.3622 V 819.75802 h -14.3622 z m -28.7244,0 h 14.3622 V 819.75802 h -14.3622 z m 236.97645,-14.3622 h 86.17319 V 834.12022 h -86.17319 z m 86.17324,0 h 86.1732 V 834.12022 h -86.1732 z m 136.44098,14.3622 h 14.3622 V 905.93122 h -67.50234 v 14.3622 h 53.14014 z m -28.7244,0 h 14.3622 V 934.65562 h -38.77794 v 14.3622 h 24.41574 z m 64.62992,-14.3622 h 86.1732 V 834.12022 h -86.1732 z m 86.17322,0 h 86.1732 V 834.12022 h -86.1732 z m 86.17328,0 H 971.9838 V 834.12022 h -86.17319 z m 86.17328,0 h 86.17321 V 834.12022 h -86.17321 z m 86.17321,0 h 86.1732 V 834.12022 h -86.1732 z m 86.1732,0 h 86.1732 V 834.12022 h -86.1732 z m 86.1734,0 h 86.1732 V 834.12022 h -86.1732 z m 136.4409,14.3622 h 14.3622 V 905.93122 h -67.5024 v 14.3622 h 53.1402 z m -28.7244,0 h 14.3622 V 934.65562 h -38.778 v 14.3622 h 24.4158 z m 172.3464,-89.04568 h 67.5024 v -14.3622 h -53.1402 v -114.8976 h -14.3622 z m 28.7244,-28.7244 h 38.778 v -14.3622 h -24.4158 v -86.1732 h -14.3622 z m 35.9055,103.40788 h 86.1732 V 834.12022 h -86.1732 z m 86.1734,0 h 86.1732 V 834.12022 h -86.1732 z m 86.1732,0 h 86.1732 V 834.12022 h -86.1732 z m 86.1732,0 h 86.1732 V 834.12022 h -86.1732 z m 107.7166,14.3622 h 14.3622 V 920.29342 h 53.1402 v -14.3622 h -67.5024 z m 28.7244,0 h 14.3622 v -89.04568 h 24.4158 v -14.3622 h -38.778 z m 33.0331,-89.04568 h 67.5024 v -129.2598 h -14.3622 v 114.8976 h -53.1402 z m 0,-28.7244 h 38.778 v -100.5354 h -14.3622 v 86.1732 h -24.4158 z m 175.219,103.40788 h 86.1732 V 834.12022 h -86.1732 z m 86.1731,0 h 86.1732 V 834.12022 h -86.1732 z m 136.4411,14.3622 h 14.3622 V 819.75802 h -14.3622 z m -28.7244,0 h 14.3622 V 819.75802 h -14.3622 z m 64.63,-14.3622 h 86.1732 V 834.12022 h -86.1732 z m 86.1731,0 h 86.1732 V 834.12022 h -86.1732 z m 136.441,14.3622 h 14.3622 V 819.75802 h -14.3622 z m -28.7244,0 h 14.3622 V 819.75802 h -14.3622 z m 172.3465,-89.04568 h 67.5023 v -14.3622 h -53.1401 v -114.8976 h -14.3622 z m 28.7244,-28.7244 h 38.7779 v -14.3622 h -24.4157 v -86.1732 h -14.3622 z m 35.9056,103.40788 h 86.1732 V 834.12022 h -86.1732 z m 86.1731,0 h 86.1732 V 834.12022 h -86.1732 z m 86.1733,0 h 86.1732 V 834.12022 h -86.1732 z m 86.1731,0 h 86.1732 V 834.12022 h -86.1732 z m 136.4411,14.3622 h 14.3622 V 819.75802 h -14.3622 z m -28.7244,0 h 14.3622 V 819.75802 h -14.3622 z m 64.63,-14.3622 h 86.1732 V 834.12022 h -86.1732 z m 86.1731,0 h 86.1732 V 834.12022 h -86.1732 z m 86.1734,0 h 86.1732 V 834.12022 h -86.1732 z m 86.1733,0 h 86.1732 V 834.12022 h -86.1732 z m 86.1731,0 h 86.1732 V 834.12022 h -86.1732 z m 86.1733,0 h 86.1732 V 834.12022 h -86.1732 z m 107.7167,14.3622 h 14.3622 V 920.29342 h 53.1401 v -14.3622 h -67.5023 z m 28.7244,0 h 14.3622 v -89.04568 h 24.4157 v -14.3622 h -38.7779 z m 33.0329,-89.04568 h 67.5024 v -129.2598 h -14.3622 v 114.8976 h -53.1402 z m 0,-28.7244 h 38.778 v -100.5354 h -14.3622 v 86.1732 h -24.4158 z m 110.5891,28.7244 h 67.5023 v -14.3622 h -53.1401 v -114.8976 h -14.3622 z m 28.7244,-28.7244 h 38.7779 v -14.3622 h -24.4157 v -86.1732 h -14.3622 z m 35.9054,103.40788 h 86.1732 V 834.12022 h -86.1732 z m 86.1733,0 h 86.1732 V 834.12022 h -86.1732 z m 86.1734,0 h 86.1732 V 834.12022 h -86.1732 z m 86.1733,0 h 86.1732 V 834.12022 h -86.1732 z m 86.1729,0 h 86.1732 V 834.12022 h -86.1732 z m 86.1733,0 h 86.1732 V 834.12022 h -86.1732 z m 107.7167,14.3622 h 14.3622 V 920.29342 h 53.1401 v -14.3622 h -67.5023 z m 28.7244,0 h 14.3622 v -89.04568 h 24.4157 v -14.3622 h -38.7779 z m 33.0332,-89.04568 h 67.5023 v -129.2598 h -14.3622 v 114.8976 h -53.1401 z m 0,-28.7244 h 38.7779 v -100.5354 h -14.3622 v 86.1732 h -24.4157 z m 347.5653,103.40788 h 86.1732 V 834.12022 h -86.1732 z m 86.1733,0 h 86.1732 V 834.12022 h -86.1732 z m 136.441,14.3622 h 14.3622 V 819.75802 h -14.3622 z m -28.7244,0 h 14.3622 V 819.75802 h -14.3622 z m 323.1496,-14.3622 h 86.1732 V 834.12022 h -86.1732 z m 86.1734,0 h 86.1732 V 834.12022 h -86.1732 z m 86.1733,0 h 86.1732 V 834.12022 h -86.1732 z m 86.1728,0 h 86.1732 V 834.12022 h -86.1732 z m 86.1734,0 h 86.1732 V 834.12022 h -86.1732 z m 86.1733,0 h 86.1732 V 834.12022 h -86.1732 z m 86.1734,0 h 86.1732 V 834.12022 h -86.1732 z m 136.441,14.3622 h 14.3622 V 905.93122 h -67.5023 v 14.3622 h 53.1401 z m -28.7244,0 h 14.3622 V 934.65562 h -38.7779 v 14.3622 h 24.4157 z m 64.6296,-14.3622 h 86.1732 V 834.12022 h -86.1732 z m 86.1733,0 h 86.1732 V 834.12022 h -86.1732 z m 136.441,14.3622 h 14.3622 V 819.75802 h -14.3622 z m -28.7244,0 h 14.3622 V 819.75802 h -14.3622 z m 64.6301,-14.3622 h 86.1732 V 834.12022 h -86.1732 z m 86.1733,0 h 86.1732 V 834.12022 h -86.1732 z m 86.1734,0 h 86.1732 V 834.12022 h -86.1732 z m 86.1728,0 h 86.1732 V 834.12022 h -86.1732 z m 86.1733,0 h 86.1732 V 834.12022 h -86.1732 z m 86.1734,0 h 86.1732 V 834.12022 h -86.1732 z m 107.7166,14.3622 h 14.3622 V 920.29342 h 53.1402 v -14.3622 h -67.5024 z m 28.7244,0 h 14.3622 v -89.04568 h 24.4158 v -14.3622 h -38.778 z m 33.0332,-89.04568 h 67.5024 v -129.2598 h -14.3622 v 114.8976 h -53.1402 z m 0,-28.7244 h 38.778 v -100.5354 h -14.3622 v 86.1732 h -24.4158 z M 45.621424,1130.4069 h 67.502336 v -14.3622 H 59.983624 v -114.8976 h -14.3622 z m 28.724399,-28.7244 h 38.777937 v -14.3622 H 88.708022 v -86.1732 H 74.345823 Z m 33.033107,0 h 91.91808 v -14.3622 h -91.91808 z m 0,28.7244 h 91.91808 v -14.3622 h -91.91808 z m 86.17325,0 h 67.50234 v -129.2598 h -14.3622 v 114.8976 h -53.14014 z m 0,-28.7244 h 38.77794 v -100.5354 h -14.3622 v 86.1732 h -24.41574 z m 282.93549,28.7244 H 543.99 v -14.3622 h -53.14014 v -114.8976 h -14.36219 z m 28.72439,-28.7244 H 543.99 v -14.3622 h -24.41574 v -86.1732 h -14.3622 z m 33.03311,0 h 91.91808 v -14.3622 h -91.91808 z m 0,28.7244 h 91.91808 v -14.3622 h -91.91808 z m 86.17328,0 h 67.50234 v -129.2598 h -14.3622 v 114.8976 h -53.14014 z m 0,-28.7244 h 38.77794 v -100.5354 h -14.3622 v 86.1732 h -24.41574 z m 110.58896,28.7244 h 67.50234 v -14.3622 h -53.14014 v -114.8976 h -14.3622 z m 28.7244,-28.7244 h 38.77794 v -14.3622 h -24.41574 v -86.1732 h -14.3622 z m 33.03308,0 h 91.91808 v -14.3622 h -91.91808 z m 0,28.7244 h 91.91808 v -14.3622 h -91.91808 z m 86.17328,-28.7244 h 91.91807 v -14.3622 h -91.91807 z m 0,28.7244 h 91.91807 v -14.3622 h -91.91807 z m 86.17328,-28.7244 h 91.91805 v -14.3622 h -91.91805 z m 0,28.7244 h 91.91805 v -14.3622 h -91.91805 z m 86.17325,-28.7244 h 91.918 v -14.3622 h -91.918 z m 0,28.7244 h 91.918 v -14.3622 h -91.918 z m 86.1732,-28.7244 h 91.9181 v -14.3622 h -91.9181 z m 0,28.7244 h 91.9181 v -14.3622 h -91.9181 z m 86.1733,-28.7244 h 91.9181 v -14.3622 h -91.9181 z m 0,28.7244 h 91.9181 v -14.3622 h -91.9181 z m 86.1732,0 h 67.5024 v -129.2598 h -14.3622 v 114.8976 h -53.1402 z m 0,-28.7244 h 38.778 v -100.5354 h -14.3622 v 86.1732 h -24.4158 z m 282.9354,28.7244 h 67.5024 v -14.3622 h -53.1402 v -114.8976 h -14.3622 z m 28.7244,-28.7244 h 38.778 v -14.3622 h -24.4158 v -86.1732 h -14.3622 z m 33.0332,0 h 91.9181 v -14.3622 h -91.9181 z m 0,28.7244 h 91.9181 v -14.3622 h -91.9181 z m 86.1733,-28.7244 h 91.918 v -14.3622 h -91.918 z m 0,28.7244 h 91.918 v -14.3622 h -91.918 z m 86.1732,-28.7244 h 91.918 v -14.3622 h -91.918 z m 0,28.7244 h 91.918 v -14.3622 h -91.918 z m 86.1733,0 h 67.5023 v -129.2598 h -14.3622 v 114.8976 h -53.1401 z m 0,-28.7244 h 38.7779 v -100.5354 h -14.3622 v 86.1732 h -24.4157 z m 282.9355,28.7244 h 67.5024 v -14.3622 h -53.1402 v -114.8976 h -14.3622 z m 28.7244,-28.7244 h 38.778 v -14.3622 h -24.4158 v -86.1732 h -14.3622 z m 33.033,0 h 91.9181 v -14.3622 h -91.9181 z m 0,28.7244 h 91.9181 v -14.3622 h -91.9181 z m 86.1733,0 h 67.5024 v -129.2598 h -14.3622 v 114.8976 h -53.1402 z m 0,-28.7244 h 38.778 v -100.5354 h -14.3622 v 86.1732 h -24.4158 z m 110.5891,28.7244 h 67.5023 v -14.3622 h -53.1401 v -114.8976 h -14.3622 z m 28.7244,-28.7244 h 38.7779 v -14.3622 h -24.4157 v -86.1732 h -14.3622 z m 33.033,0 h 91.918 v -14.3622 h -91.918 z m 0,28.7244 h 91.918 v -14.3622 h -91.918 z m 86.1733,0 h 67.5023 v -129.2598 h -14.3622 v 114.8976 h -53.1401 z m 0,-28.7244 h 38.7779 v -100.5354 h -14.3622 v 86.1732 h -24.4157 z m 282.9355,28.7244 h 67.5023 v -14.3622 h -53.1401 v -114.8976 h -14.3622 z m 28.7244,-28.7244 h 38.7779 v -14.3622 h -24.4157 v -86.1732 h -14.3622 z m 33.033,0 h 91.918 v -14.3622 h -91.918 z m 0,28.7244 h 91.918 v -14.3622 h -91.918 z m 86.1733,-28.7244 h 91.9181 v -14.3622 h -91.9181 z m 0,28.7244 h 91.9181 v -14.3622 h -91.9181 z m 86.1731,-28.7244 h 91.9181 v -14.3622 h -91.9181 z m 0,28.7244 h 91.9181 v -14.3622 h -91.9181 z m 86.1733,0 h 67.5024 v -129.2598 h -14.3622 v 114.8976 h -53.1402 z m 0,-28.7244 h 38.778 v -100.5354 h -14.3622 v 86.1732 h -24.4158 z m 110.5891,28.7244 h 67.5024 v -14.3622 h -53.1402 v -114.8976 h -14.3622 z m 28.7244,-28.7244 h 38.778 v -14.3622 h -24.4158 v -86.1732 h -14.3622 z m 33.033,0 h 91.9181 v -14.3622 h -91.9181 z m 0,28.7244 h 91.9181 v -14.3622 h -91.9181 z m 86.1733,-28.7244 h 91.9181 v -14.3622 h -91.9181 z m 0,28.7244 h 91.9181 v -14.3622 h -91.9181 z m 86.1734,-28.7244 h 91.918 v -14.3622 h -91.918 z m 0,28.7244 h 91.918 v -14.3622 h -91.918 z m 86.1731,-28.7244 h 91.918 v -14.3622 h -91.918 z m 0,28.7244 h 91.918 v -14.3622 h -91.918 z m 86.1733,-28.7244 h 91.9181 v -14.3622 h -91.9181 z m 0,28.7244 h 91.9181 v -14.3622 h -91.9181 z m 86.1733,0 h 67.5024 v -129.2598 h -14.3622 v 114.8976 h -53.1402 z m 0,-28.7244 h 38.778 v -100.5354 h -14.3622 v 86.1732 h -24.4158 z m 282.9353,28.7244 h 67.5023 v -14.3622 h -53.1401 v -114.8976 h -14.3622 z m 28.7244,-28.7244 h 38.7779 v -14.3622 h -24.4157 v -86.1732 h -14.3622 z m 33.0332,0 h 91.9181 v -14.3622 h -91.9181 z m 0,28.7244 h 91.9181 v -14.3622 h -91.9181 z m 86.1733,-28.7244 h 91.9181 v -14.3622 h -91.9181 z m 0,28.7244 h 91.9181 v -14.3622 h -91.9181 z m 86.1734,-28.7244 h 91.9181 v -14.3622 h -91.9181 z m 0,28.7244 h 91.9181 v -14.3622 h -91.9181 z m 86.1728,-28.7244 h 91.9181 v -14.3622 h -91.9181 z m 0,28.7244 h 91.9181 v -14.3622 h -91.9181 z m 86.1734,-28.7244 h 91.9181 v -14.3622 h -91.9181 z m 0,28.7244 h 91.9181 v -14.3622 h -91.9181 z m 86.1733,0 h 67.5024 v -129.2598 h -14.3622 v 114.8976 h -53.1402 z m 0,-28.7244 h 38.778 v -100.5354 h -14.3622 v 86.1732 h -24.4158 z m 455.282,28.7244 h 67.5023 v -14.3622 h -53.1401 v -114.8976 h -14.3622 z m 28.7244,-28.7244 h 38.7779 v -14.3622 h -24.4157 v -86.1732 h -14.3622 z m 33.0332,0 h 91.918 v -14.3622 h -91.918 z m 0,28.7244 h 91.918 v -14.3622 h -91.918 z m 86.1733,0 h 67.5023 v -129.2598 h -14.3622 v 114.8976 h -53.1401 z m 0,-28.7244 h 38.7779 v -100.5354 h -14.3622 v 86.1732 h -24.4157 z m 369.1086,28.7244 h 67.5024 v -14.3622 h -53.1402 v -114.8976 h -14.3622 z m 28.7244,-28.7244 h 38.778 v -14.3622 h -24.4158 v -86.1732 h -14.3622 z m 33.0332,0 h 91.9181 v -14.3622 h -91.9181 z m 0,28.7244 h 91.9181 v -14.3622 h -91.9181 z m 86.1734,-28.7244 h 91.918 v -14.3622 h -91.918 z m 0,28.7244 h 91.918 v -14.3622 h -91.918 z m 86.1728,-28.7244 h 91.9181 v -14.3622 h -91.9181 z m 0,28.7244 h 91.9181 v -14.3622 h -91.9181 z m 86.1733,-28.7244 h 91.9181 v -14.3622 h -91.9181 z m 0,28.7244 h 91.9181 v -14.3622 h -91.9181 z m 86.1734,-28.7244 h 91.9181 v -14.3622 h -91.9181 z m 0,28.7244 h 91.9181 v -14.3622 h -91.9181 z m 86.1733,-28.7244 h 91.9181 v -14.3622 h -91.9181 z m 0,28.7244 h 91.9181 v -14.3622 h -91.9181 z m 86.1734,0 h 67.5023 v -129.2598 h -14.3622 v 114.8976 h -53.1401 z m 0,-28.7244 h 38.7779 v -100.5354 h -14.3622 v 86.1732 h -24.4157 z m 110.5886,28.7244 h 67.5023 v -14.3622 h -53.1401 v -114.8976 h -14.3622 z m 28.7244,-28.7244 h 38.7779 v -14.3622 h -24.4157 v -86.1732 h -14.3622 z m 33.0332,0 h 91.918 v -14.3622 h -91.918 z m 0,28.7244 h 91.918 v -14.3622 h -91.918 z m 86.1733,0 h 67.5023 v -129.2598 h -14.3622 v 114.8976 h -53.1401 z m 0,-28.7244 h 38.7779 v -100.5354 h -14.3622 v 86.1732 h -24.4157 z m 110.5891,28.7244 h 67.5023 v -14.3622 h -53.1401 v -114.8976 h -14.3622 z m 28.7244,-28.7244 h 38.7779 v -14.3622 h -24.4157 v -86.1732 h -14.3622 z m 33.0332,0 h 91.9181 v -14.3622 h -91.9181 z m 0,28.7244 h 91.9181 v -14.3622 h -91.9181 z m 86.1733,-28.7244 h 91.9181 v -14.3622 h -91.9181 z m 0,28.7244 h 91.9181 v -14.3622 h -91.9181 z m 86.1729,-28.7244 h 91.918 v -14.3622 h -91.918 z m 0,28.7244 h 91.918 v -14.3622 h -91.918 z m 86.1733,-28.7244 h 91.9181 v -14.3622 h -91.9181 z m 0,28.7244 h 91.9181 v -14.3622 h -91.9181 z m 86.1733,-28.7244 h 91.9181 v -14.3622 h -91.9181 z m 0,28.7244 h 91.9181 v -14.3622 h -91.9181 z m 86.1734,0 h 67.5023 v -129.2598 h -14.3622 v 114.8976 h -53.1401 z m 0,-28.7244 h 38.7779 v -100.5354 h -14.3622 v 86.1732 h -24.4157 z"
       id="text1"
       transform="matrix(0.26700935,0,0,0.27149156,-6.4290845,-29.474196)"
       aria-label="██╗  ██╗███████╗██╗   ██╗██╗███╗   ██╗██████╗  ██████╗ ████████╗██╗     ██╗██████╗&#10;██║ ██╔╝██╔════╝██║   ██║██║████╗  ██║██╔══██╗██╔═══██╗╚══██╔══╝██║     ██║██╔══██╗&#10;█████╔╝ █████╗  ██║   ██║██║██╔██╗ ██║██████╔╝██║   ██║   ██║   ██║     ██║██████╔╝&#10;██╔═██╗ ██╔══╝  ╚██╗ ██╔╝██║██║╚██╗██║██╔══██╗██║   ██║   ██║   ██║     ██║██╔══██╗&#10;██║  ██╗███████╗ ╚████╔╝ ██║██║ ╚████║██████╔╝╚██████╔╝   ██║   ███████╗██║██████╔╝&#10;╚═╝  ╚═╝╚══════╝  ╚═══╝  ╚═╝╚═╝  ╚═══╝╚═════╝  ╚═════╝    ╚═╝   ╚══════╝╚═╝╚═════╝" />
  </g>
</svg>
