<?xml version="1.0" encoding="UTF-8" standalone="no"?>
<!-- Created with Inkscape (http://www.inkscape.org/) -->

<svg
   width="800"
   height="800"
   viewBox="0 0 211.66666 211.66667"
   version="1.1"
   id="svg5"
   xml:space="preserve"
   inkscape:version="1.2.2 (b0a8486541, 2022-12-01)"
   sodipodi:docname="nlp-abstract.svg"
   xmlns:inkscape="http://www.inkscape.org/namespaces/inkscape"
   xmlns:sodipodi="http://sodipodi.sourceforge.net/DTD/sodipodi-0.dtd"
   xmlns="http://www.w3.org/2000/svg"
   xmlns:svg="http://www.w3.org/2000/svg"
   xmlns:rdf="http://www.w3.org/1999/02/22-rdf-syntax-ns#"
   xmlns:cc="http://creativecommons.org/ns#"
   xmlns:dc="http://purl.org/dc/elements/1.1/"><title
     id="title327">Orange3 Natural Language Processing</title><sodipodi:namedview
     id="namedview7"
     pagecolor="#ffffff"
     bordercolor="#000000"
     borderopacity="0.25"
     inkscape:showpageshadow="2"
     inkscape:pageopacity="0.0"
     inkscape:pagecheckerboard="0"
     inkscape:deskcolor="#d1d1d1"
     inkscape:document-units="mm"
     showgrid="false"
     inkscape:zoom="0.75811588"
     inkscape:cx="393.73928"
     inkscape:cy="350.21031"
     inkscape:window-width="1920"
     inkscape:window-height="1029"
     inkscape:window-x="0"
     inkscape:window-y="0"
     inkscape:window-maximized="1"
     inkscape:current-layer="layer1" /><defs
     id="defs2" /><g
     inkscape:label="Layer 1"
     inkscape:groupmode="layer"
     id="layer1"><path
       style="fill:#000000;stroke-width:1.65136"
       d="m 58.896821,185.81265 c -2.249466,-3.6963 -3.575736,-4.43135 -6.168326,-3.41882 -4.831362,1.88695 -12.758884,1.81131 -11.571203,-0.11045 0.574142,-0.92901 -0.07366,-1.217 -1.503344,-0.66837 C 36.64728,182.76884 29.39182,175.37071 20.856707,162.44822 8.7680032,144.14551 13.615628,126.62109 35.303073,110.22399 45.370694,102.61222 49.886185,94.881424 50.219598,84.68598 50.237073,84.150472 45.052086,82.782803 38.697304,81.647127 32.342523,80.511448 26.696996,78.86036 26.1517,77.978082 25.606393,77.09574 23.293883,75.664286 21.012772,74.796986 c -7.520715,-2.859353 -1.709126,-6.47622 10.406079,-6.47622 11.232397,0 25.438038,-5.276255 25.438038,-9.448167 0,-1.201523 3.046762,-8.244334 6.770575,-15.650641 3.786662,-7.531383 6.770574,-15.837756 6.770574,-18.847526 0,-6.309077 4.620648,-11.32744 9.046698,-9.825332 8.21902,2.789387 15.3934,13.478647 15.3934,22.934991 0,5.657354 0,5.657354 9.056894,6.408376 9.27447,0.769123 16.53902,5.032844 15.07511,8.847811 -0.41504,1.08194 -0.0437,2.679852 0.8288,3.550834 4.38392,4.38393 -3.49521,13.420541 -12.84108,14.727418 -10.242574,1.432267 -11.149944,1.922339 -8.800764,4.75292 1.12176,1.351627 3.843254,2.457471 6.047764,2.457471 2.2045,0 6.20734,1.137239 8.89518,2.527188 3.67047,1.898061 5.7054,2.08917 8.17478,0.767562 2.3337,-1.248958 4.25612,-1.241342 6.62463,0.02496 1.83528,0.982202 3.984,1.385832 4.77496,0.897008 2.45628,-1.518085 18.17489,19.246851 21.80787,28.809171 4.52135,11.90057 3.70318,33.24333 -1.59623,41.63789 -1.88389,2.98424 -4.95532,8.2125 -6.82543,11.61842 -1.87004,3.40596 -4.12816,6.19261 -5.01799,6.19261 -0.88978,0 -3.10402,1.48625 -4.9205,3.30273 -2.96639,2.96633 -5.49795,3.5451 -17.48826,3.99797 -1.89844,0.0719 -4.49933,0.90424 -5.77974,1.85006 -3.02351,2.2334 -9.56675,5.21702 -14.472524,6.59924 -5.07155,1.42896 -0.86936,-4.90227 13.376344,-20.15348 21.80216,-23.34105 24.30409,-40.71811 8.84118,-61.40601 C 109.07437,89.475076 99.792206,84.561372 99.792206,93.879595 c 0,5.42112 -4.83262,23.839915 -7.74034,29.501025 -1.32622,2.58205 -2.04679,5.05917 -1.60128,5.50475 0.82211,0.82205 -3.98012,11.62383 -11.34848,25.52659 -4.05601,7.65291 -4.05601,7.65291 -0.50536,16.19675 6.87667,16.54702 -10.650312,30.07274 -19.699937,15.20264 z M 45.458067,143.47822 c -0.447069,-16.70873 -1.024949,-19.65404 -3.173967,-16.17685 -0.650287,1.05217 -3.210773,2.68429 -5.689965,3.62685 -5.951434,2.26275 -5.804912,5.96931 0.859285,21.73721 6.765651,16.00796 8.621793,13.8776 8.004647,-9.18721 z m 28.596356,-23.96163 c 3.176923,-3.74113 12.546863,-24.774063 11.036573,-24.774063 -6.07757,0 -14.739255,10.144383 -15.765777,18.464613 -0.595988,4.8305 -1.465815,11.01212 -1.932962,13.73685 -0.849361,4.95408 -0.849361,4.95408 1.853097,0.004 1.486348,-2.72268 3.650429,-6.06672 4.809069,-7.43108 z M 86.581376,78.036285 c 0,-1.726422 -0.52677,-1.786589 -3.99337,-0.456243 -3.79164,1.454985 -3.20916,3.798676 0.69064,2.778839 1.81649,-0.474968 3.30273,-1.520145 3.30273,-2.322471 z"
       id="path323" /><path
       style="fill:#660000;stroke-width:37.233;stroke-dasharray:none"
       id="path2990"
       d="m 40.875174,180.56966 c 2.888552,-0.28213 5.791063,-0.40422 8.687118,-0.61265 2.990141,-0.22563 5.975649,-0.5285 8.908232,-1.17387 1.723252,-0.37923 2.337112,-0.58592 4.020847,-1.07287 2.29644,-0.73925 4.681153,-1.31042 6.879386,-2.32779 1.357733,-0.62837 2.239248,-1.19856 3.541866,-1.96952 5.68793,-3.46795 10.401204,-8.19488 15.06947,-12.88692 2.958724,-2.93075 5.467853,-6.2478 8.001794,-9.53691 0.826958,-1.07341 1.705673,-2.10816 2.491086,-3.21233 1.676407,-2.35676 2.998067,-4.70221 4.472517,-7.18634 0.70956,-1.5504 1.44336,-3.08993 2.12866,-4.6512 0.77974,-1.77642 1.49465,-3.58072 2.26597,-5.36081 0.76704,-1.77018 1.57217,-3.52362 2.34891,-5.28957 2.04379,-4.64666 4.04964,-9.30876 6.01521,-13.98892 2.96459,-7.45427 4.72564,-15.305283 6.79537,-23.036927 1.64136,-6.343637 4.00405,-12.456977 6.44232,-18.526815 1.15131,-2.578569 1.95402,-5.289661 3.04936,-7.889984 0.61939,-1.470422 0.93083,-2.086417 1.60922,-3.515471 0.98891,-1.97004 2.13732,-3.862676 3.62238,-5.501497 0.49852,-0.550137 0.97787,-0.961575 1.52245,-1.45351 0.46709,-0.304331 1.16336,-0.994351 1.81308,-0.785386 0.0984,0.03164 0.58832,0.391991 0.64224,0.430432 6.68574,5.259321 8.24096,4.882534 -19.10728,-10.730285 -0.29059,-0.165899 0.57463,0.345106 0.84331,0.544552 0.82182,0.610044 0.85524,0.736214 1.52969,1.514922 2.02119,3.123343 2.26712,6.84466 2.40101,10.456391 0.14468,4.055269 -0.71779,8.029805 -1.20284,12.030655 -0.70798,4.666244 -0.97799,9.379164 -1.08841,14.092597 -0.0463,4.598022 -0.12187,9.206005 0.11662,13.80092 0.1054,2.030714 0.54304,7.032046 0.70608,8.972206 0.58303,8.66358 1.02372,17.33213 1.92923,25.97018 0.72226,4.94879 2.07746,9.85432 4.83986,14.08482 1.7924,2.74498 3.59398,4.62283 5.74516,7.0734 2.63032,2.7692 5.3398,5.47631 8.25824,7.94492 0.70645,0.59756 1.37167,1.26299 2.16946,1.73167 22.03759,12.94642 13.64803,12.52128 24.94743,12.4254 1.11596,-0.4248 2.29567,-0.70989 3.34789,-1.27439 4.45866,-2.39198 8.19843,-6.52198 11.53255,-10.2174 2.64255,-2.92891 4.04711,-4.6298 6.54005,-7.57328 0.72748,-0.95715 1.45495,-1.91429 2.18243,-2.87143 0,0 -19.30742,-11.1825 -19.30742,-11.1825 v 0 c -0.45614,1.02945 -0.91227,2.05891 -1.3684,3.08836 -0.8024,1.24048 -1.53595,2.52829 -2.40719,3.72142 -3.84345,5.26348 -9.07289,10.5669 -15.56661,12.33542 -1.06356,0.28965 -2.19188,0.23639 -3.28783,0.35458 -8.91901,-2.12968 -4.03505,-1.23359 14.50408,9.55913 0.90171,0.52494 -1.7564,-1.12914 -2.59816,-1.74565 -3.24863,-2.37933 -6.23305,-5.11137 -9.08184,-7.9488 -2.35528,-2.53518 -3.53573,-3.60882 -5.4729,-6.44292 -2.72442,-3.98586 -4.33053,-8.57748 -5.18168,-13.3016 -1.37206,-8.64298 -2.29144,-17.35531 -2.56598,-26.10687 -0.21267,-7.31204 -0.24687,-14.640005 0.27331,-21.941351 0.0927,-1.094676 0.34057,-4.128942 0.47147,-5.282181 0.31444,-2.770069 0.80167,-5.52119 1.20687,-8.278339 0.65644,-4.134776 0.86259,-8.325535 1.03844,-12.504745 0.0723,-3.765632 0.25266,-7.605342 -1.064,-11.207157 -0.16289,-0.397894 -0.29255,-0.81107 -0.48867,-1.193679 -0.14269,-0.278392 -0.95745,-1.544968 -1.28459,-1.741037 -7.14025,-4.279548 -14.34537,-8.451337 -21.58498,-12.560565 -0.26338,-0.149497 -0.58719,-0.155096 -0.88742,-0.194858 -0.27051,-0.03582 -0.54536,-0.02066 -0.81804,-0.031 -0.22579,0.05312 -0.45864,0.08214 -0.67736,0.159358 -1.1453,0.404323 -1.96912,1.350055 -2.71635,2.256954 -1.89157,2.482911 -3.50479,5.178383 -4.90088,7.967679 -0.81204,1.879642 -1.55052,3.770455 -2.28938,5.679151 -0.78119,2.018062 -1.61099,4.018135 -2.07253,6.143929 -1.84166,6.397438 -3.7797,12.766681 -5.51053,19.195635 -2.1138,7.457085 -0.10522,0.249737 -2.06488,7.641558 -0.33541,1.26514 -0.70944,2.519947 -1.03569,3.787479 -0.319592,1.241684 -0.572656,2.500063 -0.90162,3.739298 -0.09383,0.353475 -2.207959,7.627641 -2.295488,7.929131 -3.237958,10.01985 -6.873121,20.00522 -12.80025,28.7977 -0.731388,1.18572 -1.434714,2.38922 -2.194164,3.55717 -3.688807,5.67298 -7.882019,11.0178 -12.689858,15.7878 -0.937773,0.89607 -1.849212,1.82053 -2.81332,2.6882 -3.92304,3.53063 -8.281627,6.61647 -13.050168,8.89408 -3.335149,1.48657 -6.757881,2.78833 -10.258149,3.8343 -4.13207,1.12309 -8.184428,1.82674 -12.481536,1.91138 -3.265205,0.0682 -6.534658,-0.0129 -9.787749,-0.31956 0,0 19.993476,14.52611 19.993476,14.52611 z" /><path
       style="fill:#660000;stroke-width:37.233;stroke-dasharray:none"
       id="path2992"
       d="m 65.278986,108.44885 c 2.282071,2.50932 4.407942,5.15839 6.580137,7.76306 2.505649,3.04614 5.325182,5.82859 8.610582,8.03321 0.943451,0.63308 1.934686,1.19188 2.902029,1.78782 11.11346,6.18149 16.220334,10.61018 26.001566,13.76595 4.80103,1.54898 9.39716,2.27589 14.37648,2.8903 1.1314,0.0645 2.26143,0.16113 3.3942,0.1934 2.0488,0.0584 4.82812,-0.0191 6.87356,-0.11061 2.70108,-0.12085 4.00902,-0.19294 6.67961,-0.59126 1.07748,-0.16071 2.14477,-0.38357 3.21715,-0.57535 3.77545,-0.84559 7.70327,-1.5634 11.14493,-3.42928 2.14421,-1.16248 2.86799,-1.88871 4.77428,-3.42023 4.59677,-4.48725 8.54795,-9.60875 12.08162,-14.96166 0.38252,-0.61122 0.76503,-1.22244 1.14755,-1.83365 0,0 -20.29322,-11.58866 -20.29322,-11.58866 v 0 c -0.26079,0.63572 -0.52159,1.27144 -0.78239,1.90716 -0.37558,0.74309 -0.71923,1.50319 -1.12675,2.22925 -2.60612,4.64325 -6.04135,8.82641 -10.25863,12.08963 -2.08769,1.46644 -2.35228,1.78473 -4.63172,2.87506 -3.31327,1.58482 -6.92359,2.45015 -10.49693,3.20492 -1.02975,0.16726 -2.05476,0.36688 -3.08925,0.50178 -5.48652,0.71549 -11.06309,0.6741 -16.56104,0.13465 -3.48858,-0.45855 -6.854538,-0.97643 -10.245213,-1.96258 -1.200661,-0.34921 -2.391375,-0.73638 -3.563429,-1.17206 -7.399153,-2.75043 -13.364459,-7.283 12.347772,7.92865 -0.89458,-0.49772 -1.81072,-0.95851 -2.68372,-1.49316 -3.119327,-1.91036 -5.791862,-4.41243 -8.134957,-7.20483 -1.493845,-1.75277 -0.92307,-1.06687 -2.385782,-2.84798 -0.978707,-1.19175 -2.007727,-2.39167 -2.846139,-3.69101 -0.147984,-0.22934 -0.257624,-0.48127 -0.386437,-0.7219 0,0 -22.645859,-9.70062 -22.645859,-9.70062 z" /></g><metadata
     id="metadata325"><rdf:RDF><cc:Work
         rdf:about=""><dc:title>Orange3 Natural Language Processing</dc:title><dc:creator><cc:Agent><dc:title>Chris Lee</dc:title></cc:Agent></dc:creator><dc:rights><cc:Agent><dc:title>CC-BY-NC-SA-4.0</dc:title></cc:Agent></dc:rights></cc:Work></rdf:RDF></metadata></svg>
