<?xml version="1.0" encoding="UTF-8" standalone="no"?>
<!-- Created with Inkscape (http://www.inkscape.org/) -->

<svg
   width="800"
   height="800"
   viewBox="0 0 211.66666 211.66667"
   version="1.1"
   id="svg5"
   xml:space="preserve"
   inkscape:version="1.2.2 (b0a8486541, 2022-12-01)"
   sodipodi:docname="nlp-orange.svg"
   xmlns:inkscape="http://www.inkscape.org/namespaces/inkscape"
   xmlns:sodipodi="http://sodipodi.sourceforge.net/DTD/sodipodi-0.dtd"
   xmlns="http://www.w3.org/2000/svg"
   xmlns:svg="http://www.w3.org/2000/svg"
   xmlns:rdf="http://www.w3.org/1999/02/22-rdf-syntax-ns#"
   xmlns:cc="http://creativecommons.org/ns#"
   xmlns:dc="http://purl.org/dc/elements/1.1/"><title
     id="title327">Orange3 Natural Language Processing</title><sodipodi:namedview
     id="namedview7"
     pagecolor="#ffffff"
     bordercolor="#000000"
     borderopacity="0.25"
     inkscape:showpageshadow="2"
     inkscape:pageopacity="0.0"
     inkscape:pagecheckerboard="0"
     inkscape:deskcolor="#d1d1d1"
     inkscape:document-units="mm"
     showgrid="false"
     inkscape:zoom="0.75811588"
     inkscape:cx="397.69646"
     inkscape:cy="377.91056"
     inkscape:window-width="1920"
     inkscape:window-height="1029"
     inkscape:window-x="0"
     inkscape:window-y="0"
     inkscape:window-maximized="1"
     inkscape:current-layer="layer1" /><defs
     id="defs2" /><g
     inkscape:label="Layer 1"
     inkscape:groupmode="layer"
     id="layer1"><path
       style="fill:#000000;stroke-width:1.60513"
       d="m 81.382564,182.89271 c -2.186496,-3.59284 -3.475638,-4.30731 -5.995653,-3.32312 -4.696113,1.83413 -12.401715,1.7606 -11.247282,-0.10738 0.55807,-0.90302 -0.07159,-1.18293 -1.461259,-0.64967 -2.9225,1.12154 -9.974853,-6.06949 -18.271036,-18.63023 -11.750297,-17.79036 -7.038375,-34.8242 14.041958,-50.7623 9.785791,-7.39869 14.174877,-14.913068 14.498957,-24.823105 0.01699,-0.520517 -5.022855,-1.8499 -11.199743,-2.953785 -6.176888,-1.103886 -11.664375,-2.708755 -12.194406,-3.566335 -0.530042,-0.857641 -2.777816,-2.249024 -4.99507,-3.092044 -7.310184,-2.77931 -1.661282,-6.294927 10.114774,-6.294927 10.91796,0 24.725933,-5.128554 24.725933,-9.183678 0,-1.167888 2.961473,-8.013544 6.581042,-15.212522 3.68066,-7.320552 6.581041,-15.394399 6.581041,-18.319914 0,-6.132462 4.491297,-11.010343 8.79345,-9.550285 7.98894,2.711302 14.96248,13.101331 14.96248,22.292956 0,5.498984 0,5.498984 8.80336,6.228982 9.01484,0.747592 16.07603,4.891956 14.65311,8.600128 -0.40343,1.051652 -0.0425,2.604833 0.80559,3.451433 4.26119,4.261207 -3.39738,13.044851 -12.48162,14.315144 -9.95584,1.392172 -10.83781,1.868525 -8.55439,4.619867 1.09036,1.313791 3.73566,2.388678 5.87846,2.388678 2.14279,0 6.03357,1.105403 8.64617,2.456443 3.56773,1.844926 5.5457,2.030686 7.94594,0.746075 2.26838,-1.213995 4.13697,-1.206593 6.43919,0.02427 1.7839,0.954707 3.87246,1.347037 4.64129,0.871897 2.38752,-1.475588 17.66611,18.708062 21.19738,28.002692 4.39479,11.56744 3.59952,32.31274 -1.55154,40.47231 -1.83116,2.9007 -4.81661,7.9826 -6.63436,11.29317 -1.81769,3.31062 -4.0126,6.01926 -4.87752,6.01926 -0.86486,0 -3.01712,1.44464 -4.78275,3.21028 -2.88335,2.88329 -5.34404,3.44585 -16.99871,3.88605 -1.84529,0.0698 -4.37338,0.87893 -5.61795,1.79827 -2.93886,2.17088 -9.29894,5.07098 -14.06738,6.4145 -4.92957,1.38896 -0.84502,-4.76504 13.0019,-19.5893 21.19184,-22.68765 23.62372,-39.57827 8.59368,-59.68705 -11.20215,-14.987511 -20.22446,-19.763655 -20.22446,-10.706284 0,5.269361 -4.69734,23.172554 -7.52366,28.675184 -1.2891,2.50977 -1.9895,4.91755 -1.55646,5.35065 0.7991,0.79904 -3.8687,11.29845 -11.03079,24.81201 -3.942469,7.43867 -3.942469,7.43867 -0.49122,15.74335 6.68417,16.08381 -10.352166,29.23089 -19.148458,14.77706 z M 68.32001,141.74337 c -0.434553,-16.241 -0.996257,-19.10385 -3.085116,-15.724 -0.632083,1.02271 -3.120891,2.60914 -5.530682,3.52532 -5.784831,2.1994 -5.642411,5.8022 0.835231,21.12871 6.576255,15.55984 8.380437,13.48911 7.780567,-8.93003 z m 27.795835,-23.29086 c 3.087992,-3.6364 12.195635,-24.080551 10.727625,-24.080551 -5.90744,0 -14.326652,9.860411 -15.324438,17.947731 -0.579304,4.69527 -1.424781,10.70385 -1.878851,13.3523 -0.825584,4.8154 -0.825584,4.8154 1.801222,0.004 1.44474,-2.64645 3.548237,-5.89689 4.674442,-7.22306 z M 108.29213,78.133387 c 0,-1.678093 -0.51203,-1.736575 -3.88158,-0.443471 -3.6855,1.414255 -3.11933,3.692338 0.6713,2.701049 1.76564,-0.461671 3.21028,-1.47759 3.21028,-2.257457 z"
       id="path323" /></g><metadata
     id="metadata325"><rdf:RDF><cc:Work
         rdf:about=""><dc:title>Orange3 Natural Language Processing</dc:title><dc:creator><cc:Agent><dc:title>Chris Lee</dc:title></cc:Agent></dc:creator><dc:rights><cc:Agent><dc:title>CC-BY-NC-SA-4.0</dc:title></cc:Agent></dc:rights></cc:Work></rdf:RDF></metadata></svg>
