<?xml version="1.0" encoding="UTF-8" standalone="no"?>
<!-- Created with Inkscape (http://www.inkscape.org/) -->

<svg
   width="800"
   height="800"
   viewBox="0 0 211.66666 211.66667"
   version="1.1"
   id="svg5"
   xml:space="preserve"
   inkscape:version="1.2.2 (b0a8486541, 2022-12-01)"
   sodipodi:docname="nlp-extract.svg"
   xmlns:inkscape="http://www.inkscape.org/namespaces/inkscape"
   xmlns:sodipodi="http://sodipodi.sourceforge.net/DTD/sodipodi-0.dtd"
   xmlns="http://www.w3.org/2000/svg"
   xmlns:svg="http://www.w3.org/2000/svg"
   xmlns:rdf="http://www.w3.org/1999/02/22-rdf-syntax-ns#"
   xmlns:cc="http://creativecommons.org/ns#"
   xmlns:dc="http://purl.org/dc/elements/1.1/"><title
     id="title327">Orange3 Natural Language Processing</title><sodipodi:namedview
     id="namedview7"
     pagecolor="#ffffff"
     bordercolor="#000000"
     borderopacity="0.25"
     inkscape:showpageshadow="2"
     inkscape:pageopacity="0.0"
     inkscape:pagecheckerboard="0"
     inkscape:deskcolor="#d1d1d1"
     inkscape:document-units="mm"
     showgrid="false"
     inkscape:zoom="0.75811588"
     inkscape:cx="480.79721"
     inkscape:cy="351.52937"
     inkscape:window-width="1920"
     inkscape:window-height="1029"
     inkscape:window-x="0"
     inkscape:window-y="0"
     inkscape:window-maximized="1"
     inkscape:current-layer="layer1" /><defs
     id="defs2" /><g
     inkscape:label="Layer 1"
     inkscape:groupmode="layer"
     id="layer1"><path
       style="fill:#000000;stroke-width:1.65136"
       d="m 58.896821,185.81265 c -2.249466,-3.6963 -3.575736,-4.43135 -6.168326,-3.41882 -4.831362,1.88695 -12.758884,1.81131 -11.571203,-0.11045 0.574142,-0.92901 -0.07366,-1.217 -1.503344,-0.66837 C 36.64728,182.76884 29.39182,175.37071 20.856707,162.44822 8.7680032,144.14551 13.615628,126.62109 35.303073,110.22399 45.370694,102.61222 49.886185,94.881424 50.219598,84.68598 50.237073,84.150472 45.052086,82.782803 38.697304,81.647127 32.342523,80.511448 26.696996,78.86036 26.1517,77.978082 25.606393,77.09574 23.293883,75.664286 21.012772,74.796986 c -7.520715,-2.859353 -1.709126,-6.47622 10.406079,-6.47622 11.232397,0 25.438038,-5.276255 25.438038,-9.448167 0,-1.201523 3.046762,-8.244334 6.770575,-15.650641 3.786662,-7.531383 6.770574,-15.837756 6.770574,-18.847526 0,-6.309077 4.620648,-11.32744 9.046698,-9.825332 8.21902,2.789387 15.3934,13.478647 15.3934,22.934991 0,5.657354 0,5.657354 9.056894,6.408376 9.27447,0.769123 16.53902,5.032844 15.07511,8.847811 -0.41504,1.08194 -0.0437,2.679852 0.8288,3.550834 4.38392,4.38393 -3.49521,13.420541 -12.84108,14.727418 -10.242574,1.432267 -11.149944,1.922339 -8.800764,4.75292 1.12176,1.351627 3.843254,2.457471 6.047764,2.457471 2.2045,0 6.20734,1.137239 8.89518,2.527188 3.67047,1.898061 5.7054,2.08917 8.17478,0.767562 2.3337,-1.248958 4.25612,-1.241342 6.62463,0.02496 1.83528,0.982202 3.984,1.385832 4.77496,0.897008 2.45628,-1.518085 18.17489,19.246851 21.80787,28.809171 4.52135,11.90057 3.70318,33.24333 -1.59623,41.63789 -1.88389,2.98424 -4.95532,8.2125 -6.82543,11.61842 -1.87004,3.40596 -4.12816,6.19261 -5.01799,6.19261 -0.88978,0 -3.10402,1.48625 -4.9205,3.30273 -2.96639,2.96633 -5.49795,3.5451 -17.48826,3.99797 -1.89844,0.0719 -4.49933,0.90424 -5.77974,1.85006 -3.02351,2.2334 -9.56675,5.21702 -14.472524,6.59924 -5.07155,1.42896 -0.86936,-4.90227 13.376344,-20.15348 21.80216,-23.34105 24.30409,-40.71811 8.84118,-61.40601 C 109.07437,89.475076 99.792206,84.561372 99.792206,93.879595 c 0,5.42112 -4.83262,23.839915 -7.74034,29.501025 -1.32622,2.58205 -2.04679,5.05917 -1.60128,5.50475 0.82211,0.82205 -3.98012,11.62383 -11.34848,25.52659 -4.05601,7.65291 -4.05601,7.65291 -0.50536,16.19675 6.87667,16.54702 -10.650312,30.07274 -19.699937,15.20264 z M 45.458067,143.47822 c -0.447069,-16.70873 -1.024949,-19.65404 -3.173967,-16.17685 -0.650287,1.05217 -3.210773,2.68429 -5.689965,3.62685 -5.951434,2.26275 -5.804912,5.96931 0.859285,21.73721 6.765651,16.00796 8.621793,13.8776 8.004647,-9.18721 z m 28.596356,-23.96163 c 3.176923,-3.74113 12.546863,-24.774063 11.036573,-24.774063 -6.07757,0 -14.739255,10.144383 -15.765777,18.464613 -0.595988,4.8305 -1.465815,11.01212 -1.932962,13.73685 -0.849361,4.95408 -0.849361,4.95408 1.853097,0.004 1.486348,-2.72268 3.650429,-6.06672 4.809069,-7.43108 z M 86.581376,78.036285 c 0,-1.726422 -0.52677,-1.786589 -3.99337,-0.456243 -3.79164,1.454985 -3.20916,3.798676 0.69064,2.778839 1.81649,-0.474968 3.30273,-1.520145 3.30273,-2.322471 z"
       id="path323" /><path
       style="fill:#990033;stroke-width:37.233;stroke-dasharray:none"
       id="path1491"
       d="m 110.26572,181.46507 c 0.28583,-0.16722 0.56611,-0.34429 0.85747,-0.50165 0.43922,-0.23721 0.90222,-0.43016 1.33343,-0.68163 2.49821,-1.45694 4.76407,-3.19827 6.7478,-5.31329 1.12334,-1.19769 2.13646,-2.4942 3.2047,-3.7413 4.9297,-6.45215 3.08875,-3.6688 7.72217,-11.5592 7.02478,-11.96273 2.2778,-3.89858 9.3915,-17.38799 4.11421,-7.80159 6.59612,-12.03474 10.94633,-19.69671 7.62792,-13.16347 15.57968,-26.147285 24.03565,-38.797221 1.3257,-1.983224 2.69514,-3.936854 4.04272,-5.90528 4.92238,-6.846168 2.74084,-3.945186 7.71536,-10.361583 3.155,-4.06949 4.47923,-5.922579 7.95592,-9.718993 3.0317,-3.310498 4.43842,-4.494273 7.63898,-7.447983 1.02867,-0.849433 2.05735,-1.698867 3.08602,-2.5483 0,0 -18.72012,-11.478182 -18.72012,-11.478182 v 0 c -0.82595,0.99588 -1.6519,1.99176 -2.47785,2.98764 -2.25684,2.7022 -4.5053,5.411422 -6.76953,8.10744 -2.15861,2.570259 -6.10237,7.132075 -8.09113,9.826951 -1.73816,2.355287 -5.60676,8.461611 -7.12622,10.823863 -3.04362,4.958128 -4.74329,7.600556 -7.57793,12.747832 -1.31732,2.392063 -2.54861,4.830511 -3.82028,7.247154 -4.6368,8.811636 -9.18253,17.672342 -14.01125,26.381582 -3.5866,6.36935 -7.37043,13.2874 -11.29455,19.46002 -1.90984,3.00415 -3.94976,5.92427 -5.98786,8.84293 -1.71184,2.45144 -3.40949,4.91733 -5.26058,7.26541 -3.90968,4.95938 -5.19315,5.96731 -9.43982,10.09308 -1.30404,1.01131 -2.56436,2.08166 -3.91212,3.03394 -2.60902,1.84344 -6.00824,3.73586 -9.27423,4.05145 -0.35266,0.0341 -0.70831,-0.0202 -1.06247,-0.0303 0,0 20.14789,14.30037 20.14789,14.30037 z" /><path
       style="fill:#990033;stroke-width:37.233;stroke-dasharray:none"
       id="path1493"
       d="m 102.97561,58.198231 c 1.13292,0.433975 2.1357,0.806762 3.26921,1.308356 1.86867,0.826919 3.99742,1.868176 5.76866,2.855672 1.05593,0.588698 4.17233,2.444118 3.11812,1.852345 -5.34843,-3.002322 -10.66771,-6.056275 -16.00156,-9.084413 3.91372,2.635764 7.33747,5.902804 10.26487,9.598232 2.18608,2.759617 2.98237,4.143282 4.89788,7.099207 0.81467,1.329105 1.65624,2.642089 2.44401,3.987316 0.68468,1.169188 4.94921,8.887113 5.32297,9.574977 1.21473,2.235581 2.44786,4.461946 3.60573,6.727504 2.7465,5.374019 4.09447,8.489853 6.57762,13.939723 3.45857,7.57188 6.76997,15.22613 9.394,23.13375 0.96888,2.91977 1.53767,5.10057 2.35176,8.03407 1.14536,3.73631 1.81218,7.59166 2.74302,11.38068 0.62835,2.55774 1.32106,5.29166 2.53911,7.64784 0.81444,1.57545 1.88407,3.00529 2.8261,4.50794 3.63273,4.05027 3.99584,4.80744 8.22174,8.15749 1.30663,1.03582 2.64481,2.04832 4.09024,2.87955 8.9415,5.14206 16.48419,12.76062 26.80685,12.8434 1.36238,0.0109 2.70935,-0.29014 4.06403,-0.43522 3.33945,-0.75342 6.37494,-2.26376 9.10043,-4.31692 1.40435,-1.05792 2.29209,-2.02032 3.51142,-3.23902 0,0 -20.05462,-12.11939 -20.05462,-12.11939 v 0 c -0.38078,0.49902 -0.7257,1.02758 -1.14234,1.49708 -1.69603,1.91119 -3.83351,3.56424 -6.23156,4.49423 -1.00933,0.39144 -2.08586,0.58061 -3.12879,0.87091 -1.17428,0.0642 -2.3504,0.28458 -3.52283,0.1926 -7.11409,-0.55809 -13.78038,-6.87259 10.1639,7.85564 1.50747,0.92726 -3.07259,-1.76778 -4.51727,-2.79011 -4.21903,-2.9856 -4.51931,-3.66213 -7.99141,-7.34491 -0.80084,-1.29254 -1.71574,-2.52103 -2.40253,-3.87762 -0.59309,-1.17152 -0.99776,-2.43105 -1.42064,-3.67418 -1.68959,-4.96682 -2.4496,-10.19507 -3.9296,-15.22036 -1.34571,-3.90049 -1.53784,-4.63115 -3.16672,-8.58541 -3.34092,-8.11041 -7.25431,-15.97576 -10.89477,-23.95171 -2.70216,-5.75458 -3.81895,-8.00447 -6.32112,-13.84572 -1.78287,-4.162082 -2.91424,-7.354052 -4.82016,-11.380642 -0.68244,-1.441778 -1.43592,-2.849253 -2.19097,-4.254368 -0.71618,-1.332772 -1.48133,-2.638647 -2.22199,-3.957968 -2.10919,-3.475352 -4.15839,-7.059774 -6.69803,-10.249308 -2.16211,-2.7154 -4.76333,-5.026347 -7.53576,-7.097593 -7.31644,-4.312835 -14.62117,-8.645594 -21.94932,-12.938506 -4.55407,-2.667828 -9.32265,-4.990871 -14.19295,-7.018431 0,0 19.25327,14.943287 19.25327,14.943287 z" /></g><metadata
     id="metadata325"><rdf:RDF><cc:Work
         rdf:about=""><dc:title>Orange3 Natural Language Processing</dc:title><dc:creator><cc:Agent><dc:title>Chris Lee</dc:title></cc:Agent></dc:creator><dc:rights><cc:Agent><dc:title>CC-BY-NC-SA-4.0</dc:title></cc:Agent></dc:rights></cc:Work></rdf:RDF></metadata></svg>
