<svg xmlns="http://www.w3.org/2000/svg" width="24" height="24" viewBox="0 -8 32 32" fill="none" stroke="#CD4949" stroke-width="2" stroke-linecap="round" stroke-linejoin="round" class="feather feather-box">
  <path d="M21 16V8a2 2 0 0 0-1-1.73l-7-4a2 2 0 0 0-2 0l-7 4A2 2 0 0 0 3 8v8a2 2 0 0 0 1 1.73l7 4a2 2 0 0 0 2 0l7-4A2 2 0 0 0 21 16z"></path>
  <polyline points="3.27 6.96 12 12.01 20.73 6.96"></polyline>
  <line x1="12" y1="22.08" x2="12" y2="12"></line>
  <path d="M 17 -0.009 C 17 -0.009 19.545 -5.1 24 -5.1 C 28.455 -5.1 31 -0.009 31 -0.009 C 31 -0.009 28.455 5.082 24 5.082 C 19.545 5.082 17 -0.009 17 -0.009 Z" style="stroke-width: 1px; stroke: rgb(255, 255, 255);"></path>
  <circle cx="24" cy="-0.009" r="1.909" style="stroke-width: 1px; stroke: rgb(255, 255, 255);"></circle>
</svg>
