<?xml version="1.0" standalone="no"?>
<!DOCTYPE svg PUBLIC "-//W3C//DTD SVG 20010904//EN"
 "http://www.w3.org/TR/2001/REC-SVG-20010904/DTD/svg10.dtd">
<svg version="1.0" xmlns="http://www.w3.org/2000/svg"
 width="1763.000000pt" height="1611.000000pt" viewBox="0 0 1763.000000 1611.000000"
 preserveAspectRatio="xMidYMid meet">

<g transform="translate(0.000000,1611.000000) scale(0.100000,-0.100000)"
fill="#000000" stroke="none">
<path fill="#616161" class="jp-custom-icon jp-icon3 jp-icon-selectable" d="M8220 15781 c-122 -18 -249 -116 -311 -239 l-34 -67 -5 -1265 -5
-1265 -455 -5 c-452 -5 -455 -5 -498 -28 -110 -59 -172 -164 -172 -290 0 -121
-76 -25 1105 -1398 812 -943 748 -872 819 -914 32 -19 58 -25 128 -28 79 -4
93 -2 140 22 29 14 67 39 85 55 25 23 1067 1232 1298 1506 33 39 161 189 285
333 124 144 236 283 249 309 36 70 35 160 -3 237 -35 72 -75 111 -146 145
l-55 26 -437 3 -438 3 0 1233 c0 785 -4 1253 -10 1286 -16 82 -57 159 -119
220 -67 67 -146 108 -232 120 -71 11 -1118 11 -1189 1z"/>
<path fill="#616161" class="jp-custom-icon jp-icon3 jp-icon-selectable" d="M1264 12910 c-103 -21 -130 -44 -573 -489 -396 -399 -425 -431 -459
-500 -33 -68 -36 -81 -36 -167 0 -84 3 -98 34 -161 30 -63 92 -128 921 -958
489 -490 889 -897 889 -905 0 -8 -139 -154 -309 -324 -284 -286 -310 -316
-330 -369 -54 -147 7 -310 141 -376 71 -36 81 -38 258 -51 74 -6 214 -17 310
-25 96 -8 238 -19 315 -25 77 -5 158 -12 180 -15 22 -4 101 -10 175 -15 74 -5
182 -14 240 -19 58 -6 195 -17 305 -26 110 -9 247 -20 305 -26 58 -5 164 -14
235 -19 72 -5 180 -14 240 -20 61 -6 164 -12 230 -13 105 -1 125 2 161 21 66
34 101 69 142 140 l37 67 -2 160 c-1 143 -9 270 -44 695 -5 69 -14 193 -19
275 -6 83 -16 242 -25 355 -36 505 -46 645 -55 790 -6 85 -15 196 -20 247 -6
51 -10 125 -10 165 0 88 -21 191 -50 247 -33 66 -100 123 -168 145 -79 25
-170 19 -234 -15 -30 -16 -153 -129 -353 -326 -209 -206 -311 -301 -320 -295
-7 4 -409 400 -892 881 -569 564 -899 885 -934 907 -78 49 -180 64 -285 44z"/>
<path fill="#616161" class="jp-custom-icon jp-icon3 jp-icon-selectable" d="M16170 12906 c-121 -25 -117 -21 -1051 -959 -711 -715 -879 -878
-895 -873 -10 3 -149 137 -309 297 -159 160 -303 300 -318 311 -15 11 -51 26
-80 34 -118 31 -214 7 -298 -76 -79 -79 -93 -125 -113 -380 -9 -113 -21 -252
-27 -310 -5 -58 -14 -163 -19 -235 -5 -71 -16 -215 -25 -320 -24 -291 -45
-547 -55 -685 -5 -69 -14 -177 -20 -240 -30 -328 -54 -647 -54 -735 0 -88 27
-153 90 -212 77 -74 118 -86 274 -84 74 0 167 5 205 11 39 5 138 14 220 20 83
6 231 17 330 25 427 34 568 45 695 55 74 5 187 14 250 20 198 18 360 31 511
40 80 5 177 14 215 20 38 5 103 10 145 10 124 0 222 37 297 111 101 100 125
244 61 370 -10 20 -120 135 -245 255 -126 120 -259 249 -297 286 l-69 67 20
28 c11 15 406 413 878 883 490 489 870 876 889 905 47 75 65 132 65 211 0 133
-45 217 -192 359 -51 50 -232 227 -403 394 -345 337 -404 382 -515 400 -76 13
-87 12 -160 -3z"/>
<path fill="#616161" class="jp-custom-icon jp-icon3 jp-icon-selectable" d="M8375 8590 c-228 -8 -598 -37 -830 -65 -1245 -146 -2171 -506 -2432
-945 -39 -64 -65 -161 -65 -235 1 -380 502 -732 1383 -973 624 -171 1379 -266
2209 -278 699 -11 1303 31 1885 131 1018 174 1727 479 1977 850 249 371 -45
775 -780 1069 -578 231 -1365 383 -2258 436 -234 14 -834 19 -1089 10z"/>
<path fill="#616161" class="jp-custom-icon jp-icon3 jp-icon-selectable" d="M5050 5241 c0 -569 3 -836 11 -873 28 -130 117 -250 289 -389 111
-90 274 -183 470 -270 415 -183 1027 -333 1690 -414 213 -26 415 -43 786 -65
221 -13 833 -13 1039 0 372 24 467 31 600 45 263 27 377 42 635 85 333 55 788
173 1055 273 548 205 879 460 950 732 13 51 15 175 15 877 0 450 -2 818 -5
818 -2 0 -47 -25 -100 -55 -229 -132 -644 -302 -955 -390 -503 -142 -1099
-250 -1630 -295 -69 -6 -172 -15 -230 -20 -258 -24 -782 -33 -1210 -21 -501
13 -706 28 -1180 87 -163 21 -461 71 -590 99 -41 10 -95 21 -120 26 -65 13
-368 89 -415 104 -22 7 -94 29 -160 50 -291 89 -672 250 -825 347 -30 19 -70
43 -87 52 l-33 17 0 -820z m6030 -458 c119 -53 200 -155 220 -276 20 -127 -12
-231 -98 -315 -121 -117 -298 -136 -443 -46 -189 117 -225 380 -75 542 43 46
79 71 145 99 47 20 69 23 131 20 45 -3 93 -12 120 -24z"/>
<path fill="#616161" class="jp-custom-icon jp-icon3 jp-icon-selectable" d="M12505 3167 c-94 -59 -379 -198 -515 -252 -656 -259 -1552 -428
-2515 -476 -276 -13 -1032 -13 -1310 0 -520 26 -1033 88 -1450 175 -38 8 -104
21 -145 30 -90 18 -365 88 -435 109 -320 100 -453 148 -615 219 -153 68 -315
149 -395 198 -36 22 -68 40 -70 40 -3 0 -4 -381 -3 -847 l3 -848 23 -57 c153
-379 846 -735 1802 -928 146 -30 192 -38 430 -74 900 -138 2028 -141 2950 -10
276 39 585 97 742 138 51 14 127 34 168 44 233 61 561 182 760 281 301 151
509 321 598 490 64 120 63 112 60 1007 l-3 811 -80 -50z m-1408 -1268 c69 -33
144 -101 173 -158 46 -91 44 -239 -5 -329 -74 -137 -229 -218 -367 -192 -260
50 -391 334 -251 547 102 155 287 209 450 132z"/>
</g>
</svg>
