<svg xmlns="http://www.w3.org/2000/svg" width="24" height="24" viewBox="0 -8 32 32" fill="none" stroke="#00ffe0" stroke-width="2" stroke-linecap="round" stroke-linejoin="round" class="feather feather-bar-chart-2">
  <line x1="18" y1="20" x2="18" y2="10"></line>
  <line x1="12" y1="20" x2="12" y2="4"></line>
  <line x1="6" y1="20" x2="6" y2="14"></line>
  <path d="M 22.593 0.694 C 23.876 2.41 26.384 2.59 27.899 1.074 L 30.01 -1.037 C 31.892 -2.986 30.959 -6.241 28.33 -6.896 C 27.153 -7.189 25.907 -6.856 25.035 -6.013 L 23.824 -4.809" style="stroke-width: 1px; stroke: rgb(255, 255, 255);"></path>
  <path d="M 25.407 -0.714 C 24.123 -2.43 21.616 -2.61 20.101 -1.094 L 17.99 1.017 C 16.108 2.966 17.042 6.22 19.669 6.876 C 20.847 7.169 22.092 6.836 22.966 5.993 L 24.169 4.789" style="stroke-width: 1px; stroke: rgb(255, 255, 255);"></path>
</svg>
