<svg xmlns="http://www.w3.org/2000/svg" width="48" height="48" viewBox="0 -8 32 32" fill="none" stroke-width="2" stroke-linecap="round" stroke-linejoin="round" class="feather feather-monitor" xmlns:bx="https://boxy-svg.com">
  <defs>
    <bx:export>
      <bx:file format="svg" href="#object-0" excluded="true"></bx:file>
      <bx:file format="svg" href="#object-1" path="Untitled 2.svg"></bx:file>
      <bx:file format="svg" href="#object-2" path="Untitled 3.svg"></bx:file>
      <bx:file format="svg" path="Untitled 4.svg"></bx:file>
    </bx:export>
  </defs>
  <rect x="2" y="3" width="20" height="14" rx="2" ry="2" style="stroke: #008686;" id="object-0"></rect>
  <line x1="8" y1="21" x2="16" y2="21" style="stroke: #008686;" id="object-1"></line>
  <line x1="12" y1="17" x2="12" y2="21" style="stroke: #008686;" id="object-2"></line>
  <path d="M 27.78 3.78 C 26.692 4.609 25.368 5.069 24 5.091 C 19.545 5.091 17 0 17 0 C 17.792 -1.475 18.889 -2.764 20.22 -3.78 M 22.664 -4.938 C 23.101 -5.041 23.55 -5.092 24 -5.091 C 28.455 -5.091 31 0 31 0 C 30.614 0.723 30.153 1.403 29.625 2.03 M 25.349 1.349 C 24.347 2.425 22.557 2.012 22.127 0.606 C 21.913 -0.092 22.116 -0.851 22.651 -1.349" style="stroke-width: 1px; stroke: rgb(255, 255, 255);"></path>
  <line x1="17" y1="-7" x2="31" y2="7" style="stroke-width: 1px; stroke: rgb(255, 255, 255);"></line>
</svg>
