
        <svg xmlns="http://www.w3.org/2000/svg" xmlns:xlink="http://www.w3.org/1999/xlink" version="1.1" width="3161.360284549319" 
        height="538.5399496833522" viewBox="0 0 3161.360284549319 538.5399496833522">
			
			<g transform="scale(8.06801422746595) translate(10, 10)">
				<defs id="SvgjsDefs1263"></defs><g id="SvgjsG1264" featureKey="symbolGroupContainer" transform="matrix(0.55,0,0,0.55,0,0)" fill="#d72323"><rect xmlns="http://www.w3.org/2000/svg" width="85" height="85" rx="10" ry="10"></rect></g><g id="SvgjsG1265" featureKey="UqkkrJ-0" transform="matrix(0.5017921146953406,0,0,0.5017921146953406,-1.508769394249045,-1.508769394249045)" fill="#ffffff"><path xmlns="http://www.w3.org/2000/svg" d="m 50.053305,56.781008 c 3.838336,0.08262 7.212287,-3.678405 6.685047,-7.492472 -0.326951,-3.33482 -3.391266,-6.17935 -6.783078,-6.06823 -3.080676,0.0041 -6.032099,2.290158 -6.595333,5.353791 -0.630043,2.82476 0.727936,5.976744 3.299234,7.33595 1.03171,0.578368 2.203717,0.898639 3.39413,0.870961 z" style="" fill="#ffffff" fill-opacity="1" fill-rule="evenodd" stroke="none"></path><g xmlns="http://www.w3.org/2000/svg" transform="matrix(0.13634328,0,0,0.13634328,-1540.159,3122.9764)" style="" fill="#ffffff" fill-opacity="1" fill-rule="evenodd" stroke-width="0.50099999" stroke-linejoin="bevel"><g transform="matrix(0.63254038,0,0,-0.63254038,11638.469,-31519.706)" style="" fill="#ffffff" fill-opacity="1" fill-rule="evenodd" stroke-width="0.50099999" stroke-linejoin="bevel"><path d="m 347.00032,-14291.737 0,186.296 -161.33728,-93.148 z" style="" fill="#ffffff" fill-opacity="1" fill-rule="evenodd" stroke="none"></path><path d="m 560.4184,-14165.496 c -3.17399,-8.062 -5.18792,-16.573 -5.80199,-25.296 -1.67561,-14.085 0.51868,-28.069 5.6792,-40.921 l -225.11304,0 0,66.217 225.23583,0 z" style="" fill="#ffffff" fill-opacity="1" fill-rule="evenodd" stroke="none"></path></g><g transform="matrix(-0.63254038,0,0,-0.63254038,11687.345,-31519.706)" style="" fill="#ffffff" fill-opacity="1" fill-rule="evenodd" stroke-width="0.50099999" stroke-linejoin="bevel"><path d="m 347.00032,-14291.737 0,186.296 -161.33728,-93.148 z" style="" fill="#ffffff" fill-opacity="1" fill-rule="evenodd" stroke="none"></path><path d="m 560.4184,-14165.496 c -3.17399,-8.062 -5.18792,-16.573 -5.80199,-25.296 -1.67561,-14.085 0.51868,-28.069 5.6792,-40.921 l -225.11304,0 0,66.217 225.23583,0 z" style="" fill="#ffffff" fill-opacity="1" fill-rule="evenodd" stroke="none"></path></g></g><g xmlns="http://www.w3.org/2000/svg" transform="matrix(0,0.13634328,-0.13634328,0,-3022.9764,-1540.159)" style="" fill="#ffffff" fill-opacity="1" fill-rule="evenodd" stroke-width="0.50099999" stroke-linejoin="bevel"><g transform="matrix(0.63254038,0,0,-0.63254038,11638.469,-31519.706)" style="" fill="#ffffff" fill-opacity="1" fill-rule="evenodd" stroke-width="0.50099999" stroke-linejoin="bevel"><path d="m 347.00032,-14291.737 0,186.296 -161.33728,-93.148 z" style="" fill="#ffffff" fill-opacity="1" fill-rule="evenodd" stroke="none"></path><path d="m 560.4184,-14165.496 c -3.17399,-8.062 -5.18792,-16.573 -5.80199,-25.296 -1.67561,-14.085 0.51868,-28.069 5.6792,-40.921 l -225.11304,0 0,66.217 225.23583,0 z" style="" fill="#ffffff" fill-opacity="1" fill-rule="evenodd" stroke="none"></path></g><g transform="matrix(-0.63254038,0,0,-0.63254038,11687.345,-31519.706)" style="" fill="#ffffff" fill-opacity="1" fill-rule="evenodd" stroke-width="0.50099999" stroke-linejoin="bevel"><path d="m 347.00032,-14291.737 0,186.296 -161.33728,-93.148 z" style="" fill="#ffffff" fill-opacity="1" fill-rule="evenodd" stroke="none"></path><path d="m 560.4184,-14165.496 c -3.17399,-8.062 -5.18792,-16.573 -5.80199,-25.296 -1.67561,-14.085 0.51868,-28.069 5.6792,-40.921 l -225.11304,0 0,66.217 225.23583,0 z" style="" fill="#ffffff" fill-opacity="1" fill-rule="evenodd" stroke="none"></path></g></g><g xmlns="http://www.w3.org/2000/svg" transform="matrix(0.09640926,-0.09640926,0.09640926,0.09640926,1098.5102,3347.3347)" style="" fill="#ffffff" fill-opacity="1" fill-rule="evenodd" stroke-width="0.50099999" stroke-linejoin="bevel"><g transform="matrix(0.63254038,0,0,-0.63254038,11638.469,-31519.706)" style="" fill="#ffffff" fill-opacity="1" fill-rule="evenodd" stroke-width="0.50099999" stroke-linejoin="bevel"><path d="m 347.00032,-14291.737 0,186.296 -161.33728,-93.148 z" style="" fill="#ffffff" fill-opacity="1" fill-rule="evenodd" stroke="none"></path><path d="m 560.4184,-14165.496 c -3.17399,-8.062 -5.18792,-16.573 -5.80199,-25.296 -1.67561,-14.085 0.51868,-28.069 5.6792,-40.921 l -225.11304,0 0,66.217 225.23583,0 z" style="" fill="#ffffff" fill-opacity="1" fill-rule="evenodd" stroke="none"></path></g><g transform="matrix(-0.63254038,0,0,-0.63254038,11687.345,-31519.706)" style="" fill="#ffffff" fill-opacity="1" fill-rule="evenodd" stroke-width="0.50099999" stroke-linejoin="bevel"><path d="m 347.00032,-14291.737 0,186.296 -161.33728,-93.148 z" style="" fill="#ffffff" fill-opacity="1" fill-rule="evenodd" stroke="none"></path><path d="m 560.4184,-14165.496 c -3.17399,-8.062 -5.18792,-16.573 -5.80199,-25.296 -1.67561,-14.085 0.51868,-28.069 5.6792,-40.921 l -225.11304,0 0,66.217 225.23583,0 z" style="" fill="#ffffff" fill-opacity="1" fill-rule="evenodd" stroke="none"></path></g></g><g xmlns="http://www.w3.org/2000/svg" transform="matrix(0.09640926,0.09640926,-0.09640926,0.09640926,-3247.3348,1098.5102)" style="" fill="#ffffff" fill-opacity="1" fill-rule="evenodd" stroke-width="0.50099999" stroke-linejoin="bevel"><g transform="matrix(0.63254038,0,0,-0.63254038,11638.469,-31519.706)" style="" fill="#ffffff" fill-opacity="1" fill-rule="evenodd" stroke-width="0.50099999" stroke-linejoin="bevel"><path d="m 347.00032,-14291.737 0,186.296 -161.33728,-93.148 z" style="" fill="#ffffff" fill-opacity="1" fill-rule="evenodd" stroke="none"></path><path d="m 560.4184,-14165.496 c -3.17399,-8.062 -5.18792,-16.573 -5.80199,-25.296 -1.67561,-14.085 0.51868,-28.069 5.6792,-40.921 l -225.11304,0 0,66.217 225.23583,0 z" style="" fill="#ffffff" fill-opacity="1" fill-rule="evenodd" stroke="none"></path></g><g transform="matrix(-0.63254038,0,0,-0.63254038,11687.345,-31519.706)" style="" fill="#ffffff" fill-opacity="1" fill-rule="evenodd" stroke-width="0.50099999" stroke-linejoin="bevel"><path d="m 347.00032,-14291.737 0,186.296 -161.33728,-93.148 z" style="" fill="#ffffff" fill-opacity="1" fill-rule="evenodd" stroke="none"></path><path d="m 560.4184,-14165.496 c -3.17399,-8.062 -5.18792,-16.573 -5.80199,-25.296 -1.67561,-14.085 0.51868,-28.069 5.6792,-40.921 l -225.11304,0 0,66.217 225.23583,0 z" style="" fill="#ffffff" fill-opacity="1" fill-rule="evenodd" stroke="none"></path></g></g></g><g id="SvgjsG1266" featureKey="0kuQ8p-0" transform="matrix(1.1673381809670635,0,0,1.1673381809670635,65.94939608243382,9.163309095164681)" fill="#d72323"><path d="M17.46 11.44 l-15.44 0 l0 -4.88 l15.44 0 c0.37334 0 0.56 -0.18666 0.56 -0.56 s-0.18666 -0.56 -0.56 -0.56 l-16.56 0 l0 12.56 c0 0.37334 0.18666 0.56 0.56 0.56 s0.56 -0.18666 0.56 -0.56 l0 -5.44 l15.44 0 c0.37334 0 0.56 -0.18666 0.56 -0.56 s-0.18666 -0.56 -0.56 -0.56 z M51.46000000000001 17.64 l-10.76 -12.5 l-10.42 12.5 c-0.08 0.09334 -0.12 0.20668 -0.12 0.34002 c0 0.38666 0.19334 0.58 0.58 0.58 c0.16 0 0.29334 -0.06666 0.4 -0.2 l0 0 l3.16 -3.8 l13.04 0 l3.28 3.8 c0.12 0.13334 0.26666 0.2 0.44 0.2 c0.36 0 0.54 -0.18 0.54 -0.54 c0 -0.14666 -0.04666 -0.27332 -0.14 -0.37998 z M35.24 13.440000000000001 l5.48 -6.58 l5.68 6.58 l-11.16 0 z M64.14 14 c0 1.3733 0.82666 2.53 2.48 3.47 s3.68 1.41 6.08 1.41 c2.3866 0 4.3334 -0.26 5.84 -0.78 c1.8133 -0.62666 2.72 -1.5467 2.72 -2.76 c0 -1.2667 -0.77334 -2.18 -2.32 -2.74 c-0.88 -0.32 -2.5934 -0.65334 -5.14 -1 l-1.98 -0.28 c-2.4134 -0.34666 -4.0134 -0.65332 -4.8 -0.91998 c-1.1733 -0.4 -1.76 -0.98 -1.76 -1.74 c0 -0.72 0.69334 -1.3067 2.08 -1.76 s3.1734 -0.68 5.36 -0.68 c2.0134 0 3.7566 0.37334 5.23 1.12 s2.21 1.6333 2.21 2.66 l0 0 c0 0.37334 0.18666 0.56 0.56 0.56 s0.56 -0.18666 0.56 -0.56 l0 0 c0 -1.3733 -0.82666 -2.53 -2.48 -3.47 s-3.68 -1.41 -6.08 -1.41 c-2.3866 0 -4.3334 0.26 -5.84 0.78 c-1.8133 0.62666 -2.72 1.5467 -2.72 2.76 c0 1.2667 0.80666 2.1866 2.42 2.76 c0.77334 0.26666 2.48 0.6 5.12 1 l0.94 0.14 l1.02 0.14 c2.44 0.33334 4.06 0.64 4.86 0.92 c1.0933 0.37334 1.64 0.94668 1.64 1.72 c0 0.72 -0.69334 1.3067 -2.08 1.76 s-3.1734 0.68 -5.36 0.68 c-2.0134 0 -3.7566 -0.37334 -5.23 -1.12 s-2.21 -1.6333 -2.21 -2.66 l0 0 c0 -0.37334 -0.18666 -0.56 -0.56 -0.56 s-0.56 0.18666 -0.56 0.56 z M109.96000000000001 5.4399999999999995 l-16 0 c-0.37334 0 -0.56 0.18666 -0.56 0.56 s0.18666 0.56 0.56 0.56 l7.44 0 l0 11.44 c0 0.37334 0.18666 0.56 0.56 0.56 s0.56 -0.18666 0.56 -0.56 l0 -11.44 l7.44 0 c0.37334 0 0.56 -0.18666 0.56 -0.56 s-0.18666 -0.56 -0.56 -0.56 z M139.34 17.56 l-15.44 0 l0 -11.44 c0 -0.37334 -0.18666 -0.56 -0.56 -0.56 s-0.56 0.18666 -0.56 0.56 l0 12.54 l16.56 0 c0.37334 0 0.56 -0.18 0.56 -0.54 c0 -0.37334 -0.18666 -0.56 -0.56 -0.56 z M173.36 17.64 l-10.76 -12.5 l-10.42 12.5 c-0.08 0.09334 -0.12 0.20668 -0.12 0.34002 c0 0.38666 0.19334 0.58 0.58 0.58 c0.16 0 0.29334 -0.06666 0.4 -0.2 l0 0 l3.16 -3.8 l13.04 0 l3.28 3.8 c0.12 0.13334 0.26666 0.2 0.44 0.2 c0.36 0 0.54 -0.18 0.54 -0.54 c0 -0.14666 -0.04666 -0.27332 -0.14 -0.37998 z M157.14000000000001 13.440000000000001 l5.48 -6.58 l5.68 6.58 l-11.16 0 z M202.36 5.5600000000000005 c-0.37334 0 -0.56 0.18666 -0.56 0.56 l0 10.88 l-16 -12 l0 13.12 c0 0.36 0.18666 0.54 0.56 0.54 s0.56 -0.18 0.56 -0.54 l0 -10.9 l16 12 l0 -13.1 c0 -0.37334 -0.18666 -0.56 -0.56 -0.56 z M231.82000000000002 12.559999999999999 c0.37334 0 0.56 -0.18666 0.56 -0.56 s-0.18666 -0.56 -0.56 -0.56 l-15.44 0 l0 -4.88 l15.44 0 c0.37334 0 0.56 -0.18666 0.56 -0.56 s-0.18666 -0.56 -0.56 -0.56 l-16.56 0 l0 13.12 l16.56 0 c0.37334 0 0.56 -0.18666 0.56 -0.56 s-0.18666 -0.56 -0.56 -0.56 l-15.44 0 l0 -4.88 l15.44 0 z M244.92000000000004 14 c0 1.3733 0.82666 2.53 2.48 3.47 s3.68 1.41 6.08 1.41 c2.3866 0 4.3334 -0.26 5.84 -0.78 c1.8133 -0.62666 2.72 -1.5467 2.72 -2.76 c0 -1.2667 -0.77334 -2.18 -2.32 -2.74 c-0.88 -0.32 -2.5934 -0.65334 -5.14 -1 l-1.98 -0.28 c-2.4134 -0.34666 -4.0134 -0.65332 -4.8 -0.91998 c-1.1733 -0.4 -1.76 -0.98 -1.76 -1.74 c0 -0.72 0.69334 -1.3067 2.08 -1.76 s3.1734 -0.68 5.36 -0.68 c2.0134 0 3.7566 0.37334 5.23 1.12 s2.21 1.6333 2.21 2.66 l0 0 c0 0.37334 0.18666 0.56 0.56 0.56 s0.56 -0.18666 0.56 -0.56 l0 0 c0 -1.3733 -0.82666 -2.53 -2.48 -3.47 s-3.68 -1.41 -6.08 -1.41 c-2.3866 0 -4.3334 0.26 -5.84 0.78 c-1.8133 0.62666 -2.72 1.5467 -2.72 2.76 c0 1.2667 0.80666 2.1866 2.42 2.76 c0.77334 0.26666 2.48 0.6 5.12 1 l0.94 0.14 l1.02 0.14 c2.44 0.33334 4.06 0.64 4.86 0.92 c1.0933 0.37334 1.64 0.94668 1.64 1.72 c0 0.72 -0.69334 1.3067 -2.08 1.76 s-3.1734 0.68 -5.36 0.68 c-2.0134 0 -3.7566 -0.37334 -5.23 -1.12 s-2.21 -1.6333 -2.21 -2.66 l0 0 c0 -0.37334 -0.18666 -0.56 -0.56 -0.56 s-0.56 0.18666 -0.56 0.56 z"></path></g>
			</g>
		</svg>
	