<svg xmlns="http://www.w3.org/2000/svg" xmlns:xlink="http://www.w3.org/1999/xlink" contentStyleType="text/css" data-diagram-type="ACTIVITY" height="1287px" preserveAspectRatio="none" style="width:746px;height:1287px;background:#FFFFFF;" version="1.1" viewBox="0 0 746 1287" width="746px" zoomAndPan="magnify"><defs/><g><ellipse cx="400.5459" cy="20" fill="#222222" rx="10" ry="10" style="stroke:#222222;stroke-width:1;"/><path d="M10,40 L10,110.5313 A0,0 0 0 0 10,110.5313 L302.8701,110.5313 A0,0 0 0 0 302.8701,110.5313 L302.8701,79.2656 L322.8701,75.2656 L302.8701,71.2656 L302.8701,50 L292.8701,40 L10,40 A0,0 0 0 0 10,40" fill="#FEFFDD" style="stroke:#181818;stroke-width:0.5;"/><path d="M292.8701,40 L292.8701,50 L302.8701,50 L292.8701,40" fill="#FEFFDD" style="stroke:#181818;stroke-width:0.5;"/><text fill="#000000" font-family="sans-serif" font-size="13" lengthAdjust="spacing" textLength="271.8701" x="16" y="57.0669">Context available through all stages with:</text><text fill="#000000" font-family="sans-serif" font-size="13" lengthAdjust="spacing" textLength="143.4507" x="16" y="72.1997">- bucket configuration</text><text fill="#000000" font-family="sans-serif" font-size="13" lengthAdjust="spacing" textLength="123.4937" x="16" y="87.3325">- credentials cache</text><text fill="#000000" font-family="sans-serif" font-size="13" lengthAdjust="spacing" textLength="205.9814" x="16" y="102.4653">- validation/authorization cache</text><rect fill="#F9F9F9" height="33.9688" rx="12.5" ry="12.5" style="stroke:#333333;stroke-width:0.5;" width="155.3516" x="322.8701" y="58.2813"/><text fill="#000000" font-family="sans-serif" font-size="12" lengthAdjust="spacing" textLength="135.3516" x="332.8701" y="79.4199">Receive HTTP Request</text><rect fill="none" height="298.1406" style="stroke:#000000;stroke-width:1.5;" width="353.4473" x="223.8223" y="120.5313"/><path d="M326.9141,120.5313 L326.9141,129.8281 L316.9141,139.8281 L223.8223,139.8281" fill="none" style="stroke:#000000;stroke-width:1.5;"/><text fill="#000000" font-family="sans-serif" font-size="14" lengthAdjust="spacing" textLength="93.0918" x="226.8223" y="134.5264">request_filter</text><rect fill="#F9F9F9" height="33.9688" rx="12.5" ry="12.5" style="stroke:#333333;stroke-width:0.5;" width="109.1563" x="345.9678" y="156.8281"/><text fill="#000000" font-family="sans-serif" font-size="12" lengthAdjust="spacing" textLength="89.1563" x="355.9678" y="177.9668">request_filter()</text><rect fill="#F9F9F9" height="33.9688" rx="12.5" ry="12.5" style="stroke:#333333;stroke-width:0.5;" width="253.2383" x="273.9268" y="210.7969"/><text fill="#000000" font-family="sans-serif" font-size="12" lengthAdjust="spacing" textLength="233.2383" x="283.9268" y="231.9355">Parse token from Authorization header</text><rect fill="#F9F9F9" height="33.9688" rx="12.5" ry="12.5" style="stroke:#333333;stroke-width:0.5;" width="154.3086" x="323.3916" y="264.7656"/><text fill="#000000" font-family="sans-serif" font-size="12" lengthAdjust="spacing" textLength="134.3086" x="333.3916" y="285.9043">Parse bucket from URI</text><rect fill="#F9F9F9" height="33.9688" rx="12.5" ry="12.5" style="stroke:#333333;stroke-width:0.5;" width="333.4473" x="233.8223" y="318.7344"/><text fill="#000000" font-family="sans-serif" font-size="12" lengthAdjust="spacing" textLength="313.4473" x="243.8223" y="339.873">Invoke Python authorization callback(token, bucket)</text><rect fill="#F9F9F9" height="33.9688" rx="12.5" ry="12.5" style="stroke:#333333;stroke-width:0.5;" width="146.9844" x="327.0537" y="372.7031"/><text fill="#000000" font-family="sans-serif" font-size="12" lengthAdjust="spacing" textLength="126.9844" x="337.0537" y="393.8418">Cache auth response</text><rect fill="none" height="139.3828" style="stroke:#000000;stroke-width:1.5;" width="401.2354" x="305.7979" y="428.6719"/><path d="M421.7959,428.6719 L421.7959,437.9688 L411.7959,447.9688 L305.7979,447.9688" fill="none" style="stroke:#000000;stroke-width:1.5;"/><text fill="#000000" font-family="sans-serif" font-size="14" lengthAdjust="spacing" textLength="105.998" x="308.7979" y="442.667">upstream_peer</text><rect fill="#F9F9F9" height="33.9688" rx="12.5" ry="12.5" style="stroke:#333333;stroke-width:0.5;" width="120.2188" x="340.4365" y="464.9688"/><text fill="#000000" font-family="sans-serif" font-size="12" lengthAdjust="spacing" textLength="100.2188" x="350.4365" y="486.1074">upstream_peer()</text><path d="M505.2939,515.7891 L505.2939,531.9219 L485.2939,535.9219 L505.2939,539.9219 L505.2939,556.0547 A0,0 0 0 0 505.2939,556.0547 L697.0332,556.0547 A0,0 0 0 0 697.0332,556.0547 L697.0332,525.7891 L687.0332,515.7891 L505.2939,515.7891 A0,0 0 0 0 505.2939,515.7891" fill="#FEFFDD" style="stroke:#181818;stroke-width:0.5;"/><path d="M687.0332,515.7891 L687.0332,525.7891 L697.0332,525.7891 L687.0332,515.7891" fill="#FEFFDD" style="stroke:#181818;stroke-width:0.5;"/><text fill="#000000" font-family="sans-serif" font-size="13" lengthAdjust="spacing" textLength="162.4746" x="511.2939" y="532.856">Optional: ignore SSL cert</text><text fill="#000000" font-family="sans-serif" font-size="13" lengthAdjust="spacing" textLength="99.5439" x="511.2939" y="547.9888">and host errors</text><rect fill="#F9F9F9" height="33.9688" rx="12.5" ry="12.5" style="stroke:#333333;stroke-width:0.5;" width="169.4961" x="315.7979" y="518.9375"/><text fill="#000000" font-family="sans-serif" font-size="12" lengthAdjust="spacing" textLength="149.4961" x="325.7979" y="540.0762">Configure upstream host</text><rect fill="none" height="602.0156" style="stroke:#000000;stroke-width:1.5;" width="681.6626" x="53.792" y="578.0547"/><path d="M231.0127,578.0547 L231.0127,587.3516 L221.0127,597.3516 L53.792,597.3516" fill="none" style="stroke:#000000;stroke-width:1.5;"/><text fill="#000000" font-family="sans-serif" font-size="14" lengthAdjust="spacing" textLength="167.2207" x="56.792" y="592.0498">upstream_request_filter</text><rect fill="#F9F9F9" height="33.9688" rx="12.5" ry="12.5" style="stroke:#333333;stroke-width:0.5;" width="172.6953" x="314.1982" y="614.3516"/><text fill="#000000" font-family="sans-serif" font-size="12" lengthAdjust="spacing" textLength="152.6953" x="324.1982" y="635.4902">upstream_request_filter()</text><rect fill="#F9F9F9" height="33.9688" rx="12.5" ry="12.5" style="stroke:#333333;stroke-width:0.5;" width="275.627" x="262.7324" y="668.3203"/><text fill="#000000" font-family="sans-serif" font-size="12" lengthAdjust="spacing" textLength="255.627" x="272.7324" y="689.459">Check bucket configuration for credentials</text><polygon fill="#F9F9F9" points="352.2114,722.2891,448.8804,722.2891,460.8804,734.2891,448.8804,746.2891,352.2114,746.2891,340.2114,734.2891,352.2114,722.2891" style="stroke:#333333;stroke-width:0.5;"/><text fill="#000000" font-family="sans-serif" font-size="11" lengthAdjust="spacing" textLength="96.6689" x="352.2114" y="738.0972">credentials exist?</text><text fill="#000000" font-family="sans-serif" font-size="11" lengthAdjust="spacing" textLength="19.0083" x="321.2031" y="731.6948">yes</text><text fill="#000000" font-family="sans-serif" font-size="11" lengthAdjust="spacing" textLength="13.7017" x="460.8804" y="731.6948">no</text><rect fill="#F9F9F9" height="33.9688" rx="12.5" ry="12.5" style="stroke:#333333;stroke-width:0.5;" width="180.8047" x="165.7065" y="756.2891"/><text fill="#000000" font-family="sans-serif" font-size="12" lengthAdjust="spacing" textLength="160.8047" x="175.7065" y="777.4277">Use configured credentials</text><rect fill="#F9F9F9" height="47.9375" rx="12.5" ry="12.5" style="stroke:#333333;stroke-width:0.5;" width="356.9434" x="366.5112" y="756.2891"/><text fill="#000000" font-family="sans-serif" font-size="12" lengthAdjust="spacing" textLength="336.9434" x="376.5112" y="777.4277">Invoke Python fetch_credentials callback(token, bucket)</text><text fill="#000000" font-family="sans-serif" font-size="12" lengthAdjust="spacing" textLength="215.9707" x="376.5112" y="791.3965">--&gt; returns api_key or hmac secrets</text><rect fill="#F9F9F9" height="33.9688" rx="12.5" ry="12.5" style="stroke:#333333;stroke-width:0.5;" width="268.1387" x="410.9136" y="824.2266"/><text fill="#000000" font-family="sans-serif" font-size="12" lengthAdjust="spacing" textLength="248.1387" x="420.9136" y="845.3652">Update bucket configuration with secrets</text><polygon fill="#F9F9F9" points="400.5459,864.1953,412.5459,876.1953,400.5459,888.1953,388.5459,876.1953,400.5459,864.1953" style="stroke:#333333;stroke-width:0.5;"/><polygon fill="#F9F9F9" points="241.1641,908.1953,559.9277,908.1953,571.9277,920.1953,559.9277,932.1953,241.1641,932.1953,229.1641,920.1953,241.1641,908.1953" style="stroke:#333333;stroke-width:0.5;"/><text fill="#000000" font-family="sans-serif" font-size="11" lengthAdjust="spacing" textLength="315.2671" x="241.1641" y="924.0034">match secret type "api_key" (IBM) or HMAC (AWS/IBM/...)</text><text fill="#000000" font-family="sans-serif" font-size="11" lengthAdjust="spacing" textLength="41.9268" x="187.2373" y="917.6011">api_key</text><text fill="#000000" font-family="sans-serif" font-size="11" lengthAdjust="spacing" textLength="30.4756" x="571.9277" y="917.6011">hmac</text><rect fill="#F9F9F9" height="33.9688" rx="12.5" ry="12.5" style="stroke:#333333;stroke-width:0.5;" width="222.3184" x="108.0049" y="942.1953"/><text fill="#000000" font-family="sans-serif" font-size="12" lengthAdjust="spacing" textLength="202.3184" x="118.0049" y="963.334">POST /v1/authenticate to IBM IAM</text><rect fill="#F9F9F9" height="33.9688" rx="12.5" ry="12.5" style="stroke:#333333;stroke-width:0.5;" width="173.0586" x="132.6348" y="996.1641"/><text fill="#000000" font-family="sans-serif" font-size="12" lengthAdjust="spacing" textLength="153.0586" x="142.6348" y="1017.3027">Cache bearer token (TTL)</text><rect fill="#F9F9F9" height="33.9688" rx="12.5" ry="12.5" style="stroke:#333333;stroke-width:0.5;" width="290.7441" x="73.792" y="1050.1328"/><text fill="#000000" font-family="sans-serif" font-size="12" lengthAdjust="spacing" textLength="270.7441" x="83.792" y="1071.2715">Add "Authorization: Bearer &lt;token&gt;" header</text><rect fill="#F9F9F9" height="33.9688" rx="12.5" ry="12.5" style="stroke:#333333;stroke-width:0.5;" width="246.4414" x="458.707" y="942.1953"/><text fill="#000000" font-family="sans-serif" font-size="12" lengthAdjust="spacing" textLength="226.4414" x="468.707" y="963.334">Perform AWS4-HMAC-SHA256 signing</text><rect fill="#F9F9F9" height="33.9688" rx="12.5" ry="12.5" style="stroke:#333333;stroke-width:0.5;" width="172.5488" x="495.6533" y="996.1641"/><text fill="#000000" font-family="sans-serif" font-size="12" lengthAdjust="spacing" textLength="152.5488" x="505.6533" y="1017.3027">Add "x-amz-date" header</text><rect fill="#F9F9F9" height="33.9688" rx="12.5" ry="12.5" style="stroke:#333333;stroke-width:0.5;" width="239.8789" x="461.9883" y="1050.1328"/><text fill="#000000" font-family="sans-serif" font-size="12" lengthAdjust="spacing" textLength="219.8789" x="471.9883" y="1071.2715">Add "x-amz-content-sha256" header</text><rect fill="#F9F9F9" height="33.9688" rx="12.5" ry="12.5" style="stroke:#333333;stroke-width:0.5;" width="216.2656" x="473.7949" y="1104.1016"/><text fill="#000000" font-family="sans-serif" font-size="12" lengthAdjust="spacing" textLength="196.2656" x="483.7949" y="1125.2402">Add AWS "Authorization" header</text><polygon fill="#F9F9F9" points="400.5459,1144.0703,412.5459,1156.0703,400.5459,1168.0703,388.5459,1156.0703,400.5459,1144.0703" style="stroke:#333333;stroke-width:0.5;"/><rect fill="#F9F9F9" height="33.9688" rx="12.5" ry="12.5" style="stroke:#333333;stroke-width:0.5;" width="222.1133" x="289.4893" y="1200.0703"/><text fill="#000000" font-family="sans-serif" font-size="12" lengthAdjust="spacing" textLength="202.1133" x="299.4893" y="1221.209">Forward filtered &amp; signed request</text><ellipse cx="400.5459" cy="1265.0391" fill="none" rx="11" ry="11" style="stroke:#222222;stroke-width:1;"/><ellipse cx="400.5459" cy="1265.0391" fill="#222222" rx="6" ry="6" style="stroke:#222222;stroke-width:1;"/><line style="stroke:#181818;stroke-width:1;" x1="400.5459" x2="400.5459" y1="30" y2="58.2813"/><polygon fill="#181818" points="396.5459,48.2813,400.5459,58.2813,404.5459,48.2813,400.5459,52.2813" style="stroke:#181818;stroke-width:1;"/><line style="stroke:#181818;stroke-width:1;" x1="400.5459" x2="400.5459" y1="190.7969" y2="210.7969"/><polygon fill="#181818" points="396.5459,200.7969,400.5459,210.7969,404.5459,200.7969,400.5459,204.7969" style="stroke:#181818;stroke-width:1;"/><line style="stroke:#181818;stroke-width:1;" x1="400.5459" x2="400.5459" y1="244.7656" y2="264.7656"/><polygon fill="#181818" points="396.5459,254.7656,400.5459,264.7656,404.5459,254.7656,400.5459,258.7656" style="stroke:#181818;stroke-width:1;"/><line style="stroke:#181818;stroke-width:1;" x1="400.5459" x2="400.5459" y1="298.7344" y2="318.7344"/><polygon fill="#181818" points="396.5459,308.7344,400.5459,318.7344,404.5459,308.7344,400.5459,312.7344" style="stroke:#181818;stroke-width:1;"/><line style="stroke:#181818;stroke-width:1;" x1="400.5459" x2="400.5459" y1="352.7031" y2="372.7031"/><polygon fill="#181818" points="396.5459,362.7031,400.5459,372.7031,404.5459,362.7031,400.5459,366.7031" style="stroke:#181818;stroke-width:1;"/><line style="stroke:#181818;stroke-width:1;" x1="400.5459" x2="400.5459" y1="92.25" y2="156.8281"/><polygon fill="#181818" points="396.5459,146.8281,400.5459,156.8281,404.5459,146.8281,400.5459,150.8281" style="stroke:#181818;stroke-width:1;"/><line style="stroke:#181818;stroke-width:1;" x1="400.5459" x2="400.5459" y1="498.9375" y2="518.9375"/><polygon fill="#181818" points="396.5459,508.9375,400.5459,518.9375,404.5459,508.9375,400.5459,512.9375" style="stroke:#181818;stroke-width:1;"/><line style="stroke:#181818;stroke-width:1;" x1="400.5459" x2="400.5459" y1="406.6719" y2="464.9688"/><polygon fill="#181818" points="396.5459,454.9688,400.5459,464.9688,404.5459,454.9688,400.5459,458.9688" style="stroke:#181818;stroke-width:1;"/><line style="stroke:#181818;stroke-width:1;" x1="400.5459" x2="400.5459" y1="648.3203" y2="668.3203"/><polygon fill="#181818" points="396.5459,658.3203,400.5459,668.3203,404.5459,658.3203,400.5459,662.3203" style="stroke:#181818;stroke-width:1;"/><line style="stroke:#181818;stroke-width:1;" x1="544.9829" x2="544.9829" y1="804.2266" y2="824.2266"/><polygon fill="#181818" points="540.9829,814.2266,544.9829,824.2266,548.9829,814.2266,544.9829,818.2266" style="stroke:#181818;stroke-width:1;"/><line style="stroke:#181818;stroke-width:1;" x1="340.2114" x2="256.1089" y1="734.2891" y2="734.2891"/><line style="stroke:#181818;stroke-width:1;" x1="256.1089" x2="256.1089" y1="734.2891" y2="756.2891"/><polygon fill="#181818" points="252.1089,746.2891,256.1089,756.2891,260.1089,746.2891,256.1089,750.2891" style="stroke:#181818;stroke-width:1;"/><line style="stroke:#181818;stroke-width:1;" x1="460.8804" x2="544.9829" y1="734.2891" y2="734.2891"/><line style="stroke:#181818;stroke-width:1;" x1="544.9829" x2="544.9829" y1="734.2891" y2="756.2891"/><polygon fill="#181818" points="540.9829,746.2891,544.9829,756.2891,548.9829,746.2891,544.9829,750.2891" style="stroke:#181818;stroke-width:1;"/><line style="stroke:#181818;stroke-width:1;" x1="256.1089" x2="256.1089" y1="790.2578" y2="876.1953"/><line style="stroke:#181818;stroke-width:1;" x1="256.1089" x2="388.5459" y1="876.1953" y2="876.1953"/><polygon fill="#181818" points="378.5459,872.1953,388.5459,876.1953,378.5459,880.1953,382.5459,876.1953" style="stroke:#181818;stroke-width:1;"/><line style="stroke:#181818;stroke-width:1;" x1="544.9829" x2="544.9829" y1="858.1953" y2="876.1953"/><line style="stroke:#181818;stroke-width:1;" x1="544.9829" x2="412.5459" y1="876.1953" y2="876.1953"/><polygon fill="#181818" points="422.5459,872.1953,412.5459,876.1953,422.5459,880.1953,418.5459,876.1953" style="stroke:#181818;stroke-width:1;"/><line style="stroke:#181818;stroke-width:1;" x1="400.5459" x2="400.5459" y1="702.2891" y2="722.2891"/><polygon fill="#181818" points="396.5459,712.2891,400.5459,722.2891,404.5459,712.2891,400.5459,716.2891" style="stroke:#181818;stroke-width:1;"/><line style="stroke:#181818;stroke-width:1;" x1="219.1641" x2="219.1641" y1="976.1641" y2="996.1641"/><polygon fill="#181818" points="215.1641,986.1641,219.1641,996.1641,223.1641,986.1641,219.1641,990.1641" style="stroke:#181818;stroke-width:1;"/><line style="stroke:#181818;stroke-width:1;" x1="219.1641" x2="219.1641" y1="1030.1328" y2="1050.1328"/><polygon fill="#181818" points="215.1641,1040.1328,219.1641,1050.1328,223.1641,1040.1328,219.1641,1044.1328" style="stroke:#181818;stroke-width:1;"/><line style="stroke:#181818;stroke-width:1;" x1="581.9277" x2="581.9277" y1="976.1641" y2="996.1641"/><polygon fill="#181818" points="577.9277,986.1641,581.9277,996.1641,585.9277,986.1641,581.9277,990.1641" style="stroke:#181818;stroke-width:1;"/><line style="stroke:#181818;stroke-width:1;" x1="581.9277" x2="581.9277" y1="1030.1328" y2="1050.1328"/><polygon fill="#181818" points="577.9277,1040.1328,581.9277,1050.1328,585.9277,1040.1328,581.9277,1044.1328" style="stroke:#181818;stroke-width:1;"/><line style="stroke:#181818;stroke-width:1;" x1="581.9277" x2="581.9277" y1="1084.1016" y2="1104.1016"/><polygon fill="#181818" points="577.9277,1094.1016,581.9277,1104.1016,585.9277,1094.1016,581.9277,1098.1016" style="stroke:#181818;stroke-width:1;"/><line style="stroke:#181818;stroke-width:1;" x1="229.1641" x2="219.1641" y1="920.1953" y2="920.1953"/><line style="stroke:#181818;stroke-width:1;" x1="219.1641" x2="219.1641" y1="920.1953" y2="942.1953"/><polygon fill="#181818" points="215.1641,932.1953,219.1641,942.1953,223.1641,932.1953,219.1641,936.1953" style="stroke:#181818;stroke-width:1;"/><line style="stroke:#181818;stroke-width:1;" x1="571.9277" x2="581.9277" y1="920.1953" y2="920.1953"/><line style="stroke:#181818;stroke-width:1;" x1="581.9277" x2="581.9277" y1="920.1953" y2="942.1953"/><polygon fill="#181818" points="577.9277,932.1953,581.9277,942.1953,585.9277,932.1953,581.9277,936.1953" style="stroke:#181818;stroke-width:1;"/><line style="stroke:#181818;stroke-width:1;" x1="219.1641" x2="219.1641" y1="1084.1016" y2="1156.0703"/><line style="stroke:#181818;stroke-width:1;" x1="219.1641" x2="388.5459" y1="1156.0703" y2="1156.0703"/><polygon fill="#181818" points="378.5459,1152.0703,388.5459,1156.0703,378.5459,1160.0703,382.5459,1156.0703" style="stroke:#181818;stroke-width:1;"/><line style="stroke:#181818;stroke-width:1;" x1="581.9277" x2="581.9277" y1="1138.0703" y2="1156.0703"/><line style="stroke:#181818;stroke-width:1;" x1="581.9277" x2="412.5459" y1="1156.0703" y2="1156.0703"/><polygon fill="#181818" points="422.5459,1152.0703,412.5459,1156.0703,422.5459,1160.0703,418.5459,1156.0703" style="stroke:#181818;stroke-width:1;"/><line style="stroke:#181818;stroke-width:1;" x1="400.5459" x2="400.5459" y1="888.1953" y2="908.1953"/><polygon fill="#181818" points="396.5459,898.1953,400.5459,908.1953,404.5459,898.1953,400.5459,902.1953" style="stroke:#181818;stroke-width:1;"/><line style="stroke:#181818;stroke-width:1;" x1="400.5459" x2="400.5459" y1="552.9063" y2="614.3516"/><polygon fill="#181818" points="396.5459,604.3516,400.5459,614.3516,404.5459,604.3516,400.5459,608.3516" style="stroke:#181818;stroke-width:1;"/><line style="stroke:#181818;stroke-width:1;" x1="400.5459" x2="400.5459" y1="1168.0703" y2="1200.0703"/><polygon fill="#181818" points="396.5459,1190.0703,400.5459,1200.0703,404.5459,1190.0703,400.5459,1194.0703" style="stroke:#181818;stroke-width:1;"/><line style="stroke:#181818;stroke-width:1;" x1="400.5459" x2="400.5459" y1="1234.0391" y2="1254.0391"/><polygon fill="#181818" points="396.5459,1244.0391,400.5459,1254.0391,404.5459,1244.0391,400.5459,1248.0391" style="stroke:#181818;stroke-width:1;"/><!--SRC=[TLJlQzim4Ftkl-B8O3WmD-mdp1qTQQ0qqDBGfFHZKEIpBQ98dYIdJSV-zvrafRDBbdm9T-_kthrxYjqArJ33Ti2u4tlX3l0x0RXaV5iPtQfYfgKsyExgk__wZ3O5cXZz73x9doInZXcNvFV8KUmHhbUh1TpZhnQjEqyIfHs2nD9HWvbM3fyTi3qJacqaWgjfKbK3anAeJuKMdeIhSm9di6dv5XrmhKfHjOOveHL0I7631IedcBJ06QynnlTCYY809wnrjJRYfIiBe0HL0PvGaj3YJeICwQYkIo4TcY11FeobutCVN31ZYR7UeeBIw1rC1nDgPAHE3ndf1-Z3_JnavcfFzR0uKAM2jnIbt93uQHZn8TPtisTXHuydlhRHokAvr_xV6crZdK6sMpTut68GYalCefZuMW2rzeU280mOKTN-L01tZU_BP0wYKfeAbiiRu6XSa1g0aPQ-5D0ORIp5NjKzJUoKqFz97idMoBUdRL2I1ticy71HGjht1JuBwtwEoMDqiFI0TXnuvmzqcsCpBDvsGKdfLEa87XwiHCVhzT1y9uyMDSgo2xgNQusom1gntk81Y7YzOnmiKXyNPdfI3TaMJ-_gNqGVJZgBCeaRxnXHYbbmXmPX52UD89rVtexzmElRwGpIwUDoGf79sTdP68wwH71STt6tNC5a_p6y7hyZzwoS1gg3-VGsiktik45cw93TYqXNgvjnJ4-B0aQ3rv73PGV-4T0NezvpwHJtcXn9eA7pqljwN7x9FFLiUJtzzFKRM7AYK5L_odF6TY-PrwxVSfZb_cz7kSpMZBgSmD6WDtm7_8BSvEdyIfidPWheJ4hUUHyeqGzp_B-pJZT_0G00]--></g></svg>