<svg xmlns="http://www.w3.org/2000/svg" xmlns:xlink="http://www.w3.org/1999/xlink" contentStyleType="text/css" data-diagram-type="SEQUENCE" height="795px" preserveAspectRatio="none" style="width:801px;height:795px;background:#FFFFFF;" version="1.1" viewBox="0 0 801 795" width="801px" zoomAndPan="magnify"><defs/><g><g><title>ReverseProxy</title><rect fill="#FFFFFF" height="675" style="stroke:#181818;stroke-width:1;" width="10" x="173.7939" y="67.4297"/></g><g><title>IAM_Service</title><rect fill="#FFFFFF" height="29.1328" style="stroke:#181818;stroke-width:1;" width="10" x="490.8613" y="435.5625"/></g><g><title>IBM_COS</title><rect fill="#FFFFFF" height="58.2656" style="stroke:#181818;stroke-width:1;" width="10" x="588.3716" y="684.1641"/></g><g><title>Validation_Service</title><rect fill="#FFFFFF" height="29.1328" style="stroke:#181818;stroke-width:1;" width="10" x="708.0986" y="204.9609"/></g><rect fill="none" height="174.4688" style="stroke:#000000;stroke-width:1.5;" width="680.9028" x="113.6758" y="166.6953"/><rect fill="none" height="174.4688" style="stroke:#000000;stroke-width:1.5;" width="441.4487" x="113.6758" y="397.2969"/><g><title>Client</title><rect fill="#000000" fill-opacity="0.00000" height="724.1328" width="8" x="28.2651" y="36.2969"/><line style="stroke:#181818;stroke-width:0.5;stroke-dasharray:5.0,5.0;" x1="32" x2="32" y1="36.2969" y2="760.4297"/></g><g><title>ReverseProxy</title><rect fill="#000000" fill-opacity="0.00000" height="724.1328" width="8" x="174.7939" y="36.2969"/><line style="stroke:#181818;stroke-width:0.5;stroke-dasharray:5.0,5.0;" x1="178.6758" x2="178.6758" y1="36.2969" y2="760.4297"/></g><g><title>IAM_Service</title><rect fill="#000000" fill-opacity="0.00000" height="724.1328" width="8" x="491.8613" y="36.2969"/><line style="stroke:#181818;stroke-width:0.5;stroke-dasharray:5.0,5.0;" x1="495.5981" x2="495.5981" y1="36.2969" y2="760.4297"/></g><g><title>IBM_COS</title><rect fill="#000000" fill-opacity="0.00000" height="724.1328" width="8" x="589.3716" y="36.2969"/><line style="stroke:#181818;stroke-width:0.5;stroke-dasharray:5.0,5.0;" x1="593.1245" x2="593.1245" y1="36.2969" y2="760.4297"/></g><g><title>Validation_Service</title><rect fill="#000000" fill-opacity="0.00000" height="724.1328" width="8" x="709.0986" y="36.2969"/><line style="stroke:#181818;stroke-width:0.5;stroke-dasharray:5.0,5.0;" x1="712.6187" x2="712.6187" y1="36.2969" y2="760.4297"/></g><g class="participant participant-head" data-participant="Client"><rect fill="#E2E2F0" height="30.2969" rx="2.5" ry="2.5" style="stroke:#181818;stroke-width:0.5;" width="54.5303" x="5" y="5"/><text fill="#000000" font-family="sans-serif" font-size="14" lengthAdjust="spacing" textLength="40.5303" x="12" y="24.9951">Client</text></g><g class="participant participant-tail" data-participant="Client"><rect fill="#E2E2F0" height="30.2969" rx="2.5" ry="2.5" style="stroke:#181818;stroke-width:0.5;" width="54.5303" x="5" y="759.4297"/><text fill="#000000" font-family="sans-serif" font-size="14" lengthAdjust="spacing" textLength="40.5303" x="12" y="779.4248">Client</text></g><g class="participant participant-head" data-participant="ReverseProxy"><rect fill="#E2E2F0" height="30.2969" rx="2.5" ry="2.5" style="stroke:#181818;stroke-width:0.5;" width="110.2363" x="123.6758" y="5"/><text fill="#000000" font-family="sans-serif" font-size="14" lengthAdjust="spacing" textLength="96.2363" x="130.6758" y="24.9951">ReverseProxy</text></g><g class="participant participant-tail" data-participant="ReverseProxy"><rect fill="#E2E2F0" height="30.2969" rx="2.5" ry="2.5" style="stroke:#181818;stroke-width:0.5;" width="110.2363" x="123.6758" y="759.4297"/><text fill="#000000" font-family="sans-serif" font-size="14" lengthAdjust="spacing" textLength="96.2363" x="130.6758" y="779.4248">ReverseProxy</text></g><g class="participant participant-head" data-participant="IAM_Service"><rect fill="#E2E2F0" height="30.2969" rx="2.5" ry="2.5" style="stroke:#181818;stroke-width:0.5;" width="98.5264" x="446.5981" y="5"/><text fill="#000000" font-family="sans-serif" font-size="14" lengthAdjust="spacing" textLength="84.5264" x="453.5981" y="24.9951">IAM_Service</text></g><g class="participant participant-tail" data-participant="IAM_Service"><rect fill="#E2E2F0" height="30.2969" rx="2.5" ry="2.5" style="stroke:#181818;stroke-width:0.5;" width="98.5264" x="446.5981" y="759.4297"/><text fill="#000000" font-family="sans-serif" font-size="14" lengthAdjust="spacing" textLength="84.5264" x="453.5981" y="779.4248">IAM_Service</text></g><g class="participant participant-head" data-participant="IBM_COS"><rect fill="#E2E2F0" height="30.2969" rx="2.5" ry="2.5" style="stroke:#181818;stroke-width:0.5;" width="76.4941" x="555.1245" y="5"/><text fill="#000000" font-family="sans-serif" font-size="14" lengthAdjust="spacing" textLength="62.4941" x="562.1245" y="24.9951">IBM_COS</text></g><g class="participant participant-tail" data-participant="IBM_COS"><rect fill="#E2E2F0" height="30.2969" rx="2.5" ry="2.5" style="stroke:#181818;stroke-width:0.5;" width="76.4941" x="555.1245" y="759.4297"/><text fill="#000000" font-family="sans-serif" font-size="14" lengthAdjust="spacing" textLength="62.4941" x="562.1245" y="779.4248">IBM_COS</text></g><g class="participant participant-head" data-participant="Validation_Service"><rect fill="#E2E2F0" height="30.2969" rx="2.5" ry="2.5" style="stroke:#181818;stroke-width:0.5;" width="142.96" x="641.6187" y="5"/><text fill="#000000" font-family="sans-serif" font-size="14" lengthAdjust="spacing" textLength="128.96" x="648.6187" y="24.9951">Validation_Service</text></g><g class="participant participant-tail" data-participant="Validation_Service"><rect fill="#E2E2F0" height="30.2969" rx="2.5" ry="2.5" style="stroke:#181818;stroke-width:0.5;" width="142.96" x="641.6187" y="759.4297"/><text fill="#000000" font-family="sans-serif" font-size="14" lengthAdjust="spacing" textLength="128.96" x="648.6187" y="779.4248">Validation_Service</text></g><g><title>ReverseProxy</title><rect fill="#FFFFFF" height="675" style="stroke:#181818;stroke-width:1;" width="10" x="173.7939" y="67.4297"/></g><g><title>IAM_Service</title><rect fill="#FFFFFF" height="29.1328" style="stroke:#181818;stroke-width:1;" width="10" x="490.8613" y="435.5625"/></g><g><title>IBM_COS</title><rect fill="#FFFFFF" height="58.2656" style="stroke:#181818;stroke-width:1;" width="10" x="588.3716" y="684.1641"/></g><g><title>Validation_Service</title><rect fill="#FFFFFF" height="29.1328" style="stroke:#181818;stroke-width:1;" width="10" x="708.0986" y="204.9609"/></g><g class="message" data-participant-1="Client" data-participant-2="ReverseProxy"><polygon fill="#181818" points="161.7939,63.4297,171.7939,67.4297,161.7939,71.4297,165.7939,67.4297" style="stroke:#181818;stroke-width:1;"/><line style="stroke:#181818;stroke-width:1;" x1="32.2651" x2="167.7939" y1="67.4297" y2="67.4297"/><text fill="#000000" font-family="sans-serif" font-size="13" lengthAdjust="spacing" textLength="122.5288" x="39.2651" y="62.3638">Path-style Request</text></g><g class="message" data-participant-1="ReverseProxy" data-participant-2="ReverseProxy"><line style="stroke:#181818;stroke-width:1;" x1="183.7939" x2="225.7939" y1="96.5625" y2="96.5625"/><line style="stroke:#181818;stroke-width:1;" x1="225.7939" x2="225.7939" y1="96.5625" y2="109.5625"/><line style="stroke:#181818;stroke-width:1;" x1="184.7939" x2="225.7939" y1="109.5625" y2="109.5625"/><polygon fill="#181818" points="194.7939,105.5625,184.7939,109.5625,194.7939,113.5625,190.7939,109.5625" style="stroke:#181818;stroke-width:1;"/><text fill="#000000" font-family="sans-serif" font-size="13" lengthAdjust="spacing" textLength="211.2373" x="190.7939" y="91.4966">Extract credentials from request</text></g><g class="message" data-participant-1="ReverseProxy" data-participant-2="ReverseProxy"><line style="stroke:#181818;stroke-width:1;" x1="183.7939" x2="225.7939" y1="138.6953" y2="138.6953"/><line style="stroke:#181818;stroke-width:1;" x1="225.7939" x2="225.7939" y1="138.6953" y2="151.6953"/><line style="stroke:#181818;stroke-width:1;" x1="184.7939" x2="225.7939" y1="151.6953" y2="151.6953"/><polygon fill="#181818" points="194.7939,147.6953,184.7939,151.6953,194.7939,155.6953,190.7939,151.6953" style="stroke:#181818;stroke-width:1;"/><text fill="#000000" font-family="sans-serif" font-size="13" lengthAdjust="spacing" textLength="228.4902" x="190.7939" y="133.6294">Check authorization for valid token</text></g><path d="M113.6758,166.6953 L178.1187,166.6953 L178.1187,173.8281 L168.1187,183.8281 L113.6758,183.8281 L113.6758,166.6953" fill="#EEEEEE" style="stroke:#000000;stroke-width:1.5;"/><rect fill="none" height="174.4688" style="stroke:#000000;stroke-width:1.5;" width="680.9028" x="113.6758" y="166.6953"/><text fill="#000000" font-family="sans-serif" font-size="13" font-weight="bold" lengthAdjust="spacing" textLength="19.4429" x="128.6758" y="179.7622">alt</text><text fill="#000000" font-family="sans-serif" font-size="11" font-weight="bold" lengthAdjust="spacing" textLength="205.4175" x="193.1187" y="178.9058">[Vaidation Not Found or Expired]</text><g class="message" data-participant-1="ReverseProxy" data-participant-2="Validation_Service"><polygon fill="#181818" points="696.0986,200.9609,706.0986,204.9609,696.0986,208.9609,700.0986,204.9609" style="stroke:#181818;stroke-width:1;"/><line style="stroke:#181818;stroke-width:1;" x1="183.7939" x2="702.0986" y1="204.9609" y2="204.9609"/><text fill="#000000" font-family="sans-serif" font-size="13" lengthAdjust="spacing" textLength="122.7256" x="190.7939" y="199.895">Request Validation</text></g><g class="message" data-participant-1="Validation_Service" data-participant-2="ReverseProxy"><polygon fill="#181818" points="194.7939,230.0938,184.7939,234.0938,194.7939,238.0938,190.7939,234.0938" style="stroke:#181818;stroke-width:1;"/><line style="stroke:#181818;stroke-width:1;stroke-dasharray:2.0,2.0;" x1="188.7939" x2="712.0986" y1="234.0938" y2="234.0938"/><text fill="#000000" font-family="sans-serif" font-size="13" lengthAdjust="spacing" textLength="204.4897" x="200.7939" y="229.0278">Return Authorization Validation</text></g><g class="message" data-participant-1="ReverseProxy" data-participant-2="ReverseProxy"><line style="stroke:#181818;stroke-width:1;" x1="183.7939" x2="225.7939" y1="263.2266" y2="263.2266"/><line style="stroke:#181818;stroke-width:1;" x1="225.7939" x2="225.7939" y1="263.2266" y2="276.2266"/><line style="stroke:#181818;stroke-width:1;" x1="184.7939" x2="225.7939" y1="276.2266" y2="276.2266"/><polygon fill="#181818" points="194.7939,272.2266,184.7939,276.2266,194.7939,280.2266,190.7939,276.2266" style="stroke:#181818;stroke-width:1;"/><text fill="#000000" font-family="sans-serif" font-size="13" lengthAdjust="spacing" textLength="108.564" x="190.7939" y="258.1606">Cache validation</text></g><line style="stroke:#000000;stroke-width:1;stroke-dasharray:2.0,2.0;" x1="113.6758" x2="794.5786" y1="285.2266" y2="285.2266"/><text fill="#000000" font-family="sans-serif" font-size="11" font-weight="bold" lengthAdjust="spacing" textLength="108.4263" x="118.6758" y="295.437">[Validation Valid]</text><g class="message" data-participant-1="ReverseProxy" data-participant-2="ReverseProxy"><line style="stroke:#181818;stroke-width:1;" x1="183.7939" x2="225.7939" y1="320.1641" y2="320.1641"/><line style="stroke:#181818;stroke-width:1;" x1="225.7939" x2="225.7939" y1="320.1641" y2="333.1641"/><line style="stroke:#181818;stroke-width:1;" x1="184.7939" x2="225.7939" y1="333.1641" y2="333.1641"/><polygon fill="#181818" points="194.7939,329.1641,184.7939,333.1641,194.7939,337.1641,190.7939,333.1641" style="stroke:#181818;stroke-width:1;"/><text fill="#000000" font-family="sans-serif" font-size="13" lengthAdjust="spacing" textLength="146.4341" x="190.7939" y="315.0981">Use Cached Validation</text></g><g class="message" data-participant-1="ReverseProxy" data-participant-2="ReverseProxy"><line style="stroke:#181818;stroke-width:1;" x1="183.7939" x2="225.7939" y1="369.2969" y2="369.2969"/><line style="stroke:#181818;stroke-width:1;" x1="225.7939" x2="225.7939" y1="369.2969" y2="382.2969"/><line style="stroke:#181818;stroke-width:1;" x1="184.7939" x2="225.7939" y1="382.2969" y2="382.2969"/><polygon fill="#181818" points="194.7939,378.2969,184.7939,382.2969,194.7939,386.2969,190.7939,382.2969" style="stroke:#181818;stroke-width:1;"/><text fill="#000000" font-family="sans-serif" font-size="13" lengthAdjust="spacing" textLength="216.0679" x="190.7939" y="364.231">Check cache for valid credentials</text></g><path d="M113.6758,397.2969 L178.1187,397.2969 L178.1187,404.4297 L168.1187,414.4297 L113.6758,414.4297 L113.6758,397.2969" fill="#EEEEEE" style="stroke:#000000;stroke-width:1.5;"/><rect fill="none" height="174.4688" style="stroke:#000000;stroke-width:1.5;" width="441.4487" x="113.6758" y="397.2969"/><text fill="#000000" font-family="sans-serif" font-size="13" font-weight="bold" lengthAdjust="spacing" textLength="19.4429" x="128.6758" y="410.3638">alt</text><text fill="#000000" font-family="sans-serif" font-size="11" font-weight="bold" lengthAdjust="spacing" textLength="216.8901" x="193.1187" y="409.5073">[Credentials Not Found or Expired]</text><g class="message" data-participant-1="ReverseProxy" data-participant-2="IAM_Service"><polygon fill="#181818" points="478.8613,431.5625,488.8613,435.5625,478.8613,439.5625,482.8613,435.5625" style="stroke:#181818;stroke-width:1;"/><line style="stroke:#181818;stroke-width:1;" x1="183.7939" x2="484.8613" y1="435.5625" y2="435.5625"/><text fill="#000000" font-family="sans-serif" font-size="13" lengthAdjust="spacing" textLength="159.6499" x="190.7939" y="430.4966">Request IAM Verification</text></g><g class="message" data-participant-1="IAM_Service" data-participant-2="ReverseProxy"><polygon fill="#181818" points="194.7939,460.6953,184.7939,464.6953,194.7939,468.6953,190.7939,464.6953" style="stroke:#181818;stroke-width:1;"/><line style="stroke:#181818;stroke-width:1;stroke-dasharray:2.0,2.0;" x1="188.7939" x2="494.8613" y1="464.6953" y2="464.6953"/><text fill="#000000" font-family="sans-serif" font-size="13" lengthAdjust="spacing" textLength="176.4712" x="200.7939" y="459.6294">Return Verified Credentials</text></g><g class="message" data-participant-1="ReverseProxy" data-participant-2="ReverseProxy"><line style="stroke:#181818;stroke-width:1;" x1="183.7939" x2="225.7939" y1="493.8281" y2="493.8281"/><line style="stroke:#181818;stroke-width:1;" x1="225.7939" x2="225.7939" y1="493.8281" y2="506.8281"/><line style="stroke:#181818;stroke-width:1;" x1="184.7939" x2="225.7939" y1="506.8281" y2="506.8281"/><polygon fill="#181818" points="194.7939,502.8281,184.7939,506.8281,194.7939,510.8281,190.7939,506.8281" style="stroke:#181818;stroke-width:1;"/><text fill="#000000" font-family="sans-serif" font-size="13" lengthAdjust="spacing" textLength="116.6001" x="190.7939" y="488.7622">Cache credentials</text></g><line style="stroke:#000000;stroke-width:1;stroke-dasharray:2.0,2.0;" x1="113.6758" x2="555.1245" y1="515.8281" y2="515.8281"/><text fill="#000000" font-family="sans-serif" font-size="11" font-weight="bold" lengthAdjust="spacing" textLength="116.1284" x="118.6758" y="526.0386">[Credentials Valid]</text><g class="message" data-participant-1="ReverseProxy" data-participant-2="ReverseProxy"><line style="stroke:#181818;stroke-width:1;" x1="183.7939" x2="225.7939" y1="550.7656" y2="550.7656"/><line style="stroke:#181818;stroke-width:1;" x1="225.7939" x2="225.7939" y1="550.7656" y2="563.7656"/><line style="stroke:#181818;stroke-width:1;" x1="184.7939" x2="225.7939" y1="563.7656" y2="563.7656"/><polygon fill="#181818" points="194.7939,559.7656,184.7939,563.7656,194.7939,567.7656,190.7939,563.7656" style="stroke:#181818;stroke-width:1;"/><text fill="#000000" font-family="sans-serif" font-size="13" lengthAdjust="spacing" textLength="155.2002" x="190.7939" y="545.6997">Use Cached Credentials</text></g><g class="message" data-participant-1="ReverseProxy" data-participant-2="ReverseProxy"><line style="stroke:#181818;stroke-width:1;" x1="183.7939" x2="225.7939" y1="599.8984" y2="599.8984"/><line style="stroke:#181818;stroke-width:1;" x1="225.7939" x2="225.7939" y1="599.8984" y2="612.8984"/><line style="stroke:#181818;stroke-width:1;" x1="184.7939" x2="225.7939" y1="612.8984" y2="612.8984"/><polygon fill="#181818" points="194.7939,608.8984,184.7939,612.8984,194.7939,616.8984,190.7939,612.8984" style="stroke:#181818;stroke-width:1;"/><text fill="#000000" font-family="sans-serif" font-size="13" lengthAdjust="spacing" textLength="283.0674" x="190.7939" y="594.8325">Translate path-style to virtual-style request</text></g><g class="message" data-participant-1="ReverseProxy" data-participant-2="ReverseProxy"><line style="stroke:#181818;stroke-width:1;" x1="183.7939" x2="225.7939" y1="642.0313" y2="642.0313"/><line style="stroke:#181818;stroke-width:1;" x1="225.7939" x2="225.7939" y1="642.0313" y2="655.0313"/><line style="stroke:#181818;stroke-width:1;" x1="184.7939" x2="225.7939" y1="655.0313" y2="655.0313"/><polygon fill="#181818" points="194.7939,651.0313,184.7939,655.0313,194.7939,659.0313,190.7939,655.0313" style="stroke:#181818;stroke-width:1;"/><text fill="#000000" font-family="sans-serif" font-size="13" lengthAdjust="spacing" textLength="259.27" x="190.7939" y="636.9653">Handle secrets and endpoint (incl. port)</text></g><g class="message" data-participant-1="ReverseProxy" data-participant-2="IBM_COS"><polygon fill="#181818" points="576.3716,680.1641,586.3716,684.1641,576.3716,688.1641,580.3716,684.1641" style="stroke:#181818;stroke-width:1;"/><line style="stroke:#181818;stroke-width:1;" x1="183.7939" x2="582.3716" y1="684.1641" y2="684.1641"/><text fill="#000000" font-family="sans-serif" font-size="13" lengthAdjust="spacing" textLength="193.2544" x="190.7939" y="679.0981">Forward Virtual-style Request</text></g><g class="message" data-participant-1="IBM_COS" data-participant-2="ReverseProxy"><polygon fill="#181818" points="194.7939,709.2969,184.7939,713.2969,194.7939,717.2969,190.7939,713.2969" style="stroke:#181818;stroke-width:1;"/><line style="stroke:#181818;stroke-width:1;stroke-dasharray:2.0,2.0;" x1="188.7939" x2="587.3716" y1="713.2969" y2="713.2969"/><text fill="#000000" font-family="sans-serif" font-size="13" lengthAdjust="spacing" textLength="63.0195" x="200.7939" y="708.231">Response</text></g><g class="message" data-participant-1="ReverseProxy" data-participant-2="Client"><polygon fill="#181818" points="43.2651,738.4297,33.2651,742.4297,43.2651,746.4297,39.2651,742.4297" style="stroke:#181818;stroke-width:1;"/><line style="stroke:#181818;stroke-width:1;stroke-dasharray:2.0,2.0;" x1="37.2651" x2="177.7939" y1="742.4297" y2="742.4297"/><text fill="#000000" font-family="sans-serif" font-size="13" lengthAdjust="spacing" textLength="111.103" x="49.2651" y="737.3638">Return Response</text></g><!--SRC=[dLHDJyCm3BtdL_W8X_43Ta222GI70U9ZLnIbdXOHakAuPV3hyTgokIkmYfvIVxnd-oKkBR5tlhIHOHOyHZQbCjrZZPJnZjBwe-UuFfi_Fo3Ltc7VVZv_djq-6DE2mUIqXp65EykhIUQFWE9ugp2piOvzRHdxR4R_3N4kraoI28wm429lGuObfLUW3lNlzDaAtGlOYbU9_ATbdo8i4q5jWo-0qmj6OmF3mlgYzTuaXijKnG8ax69TUY4s8Dy-qM83qUHyJsZwtQhoDQdRpeSvfWaOsc4owEKUkQ88PxrczfWAFCXrO63MhR0TJukA8MkizZW2w4dI6h12ruYn6AMOQyhOAQNaR_IQgUimMZ5rcNTIYH4MI7xftG-2wVlVU9JXTubQFEbSbRalpm1vZ2vw38qmUWx_K4RNjv7cW3QFP6CEc-hBtVFc1BKdhcpe3EDUvfMDXGHdb9uuW_o1L50cBzlao4SNJg1CnCV3chhTCnNHwTsItAyU_M3TR7TLT_XHjrocc76FI-BQ_RPLTXjej9GTWJ9fd2y0]--></g></svg>